<svg class="animated" id="freepik_stories-software-code-testing" xmlns="http://www.w3.org/2000/svg" viewBox="0 0 500 500" version="1.1" xmlns:xlink="http://www.w3.org/1999/xlink" xmlns:svgjs="http://svgjs.com/svgjs"><style>svg#freepik_stories-software-code-testing:not(.animated) .animable {opacity: 0;}svg#freepik_stories-software-code-testing.animated #freepik--background-complete--inject-2 {animation: 1s 1 forwards cubic-bezier(.36,-0.01,.5,1.38) lightSpeedRight;animation-delay: 0s;}svg#freepik_stories-software-code-testing.animated #freepik--Shadow--inject-2 {animation: 1s 1 forwards cubic-bezier(.36,-0.01,.5,1.38) lightSpeedLeft;animation-delay: 0s;}svg#freepik_stories-software-code-testing.animated #freepik--Device--inject-2 {animation: 1s 1 forwards cubic-bezier(.36,-0.01,.5,1.38) slideUp;animation-delay: 0s;}svg#freepik_stories-software-code-testing.animated #freepik--Bugs--inject-2 {animation: 1s 1 forwards cubic-bezier(.36,-0.01,.5,1.38) slideRight;animation-delay: 0s;}svg#freepik_stories-software-code-testing.animated #freepik--character-2--inject-2 {animation: 1s 1 forwards cubic-bezier(.36,-0.01,.5,1.38) zoomOut;animation-delay: 0s;}svg#freepik_stories-software-code-testing.animated #freepik--character-1--inject-2 {animation: 1s 1 forwards cubic-bezier(.36,-0.01,.5,1.38) slideRight;animation-delay: 0s;}            @keyframes lightSpeedRight {              from {                transform: translate3d(50%, 0, 0) skewX(-20deg);                opacity: 0;              }              60% {                transform: skewX(10deg);                opacity: 1;              }              80% {                transform: skewX(-2deg);              }              to {                opacity: 1;                transform: translate3d(0, 0, 0);              }            }                    @keyframes lightSpeedLeft {              from {                transform: translate3d(-50%, 0, 0) skewX(20deg);                opacity: 0;              }              60% {                transform: skewX(-10deg);                opacity: 1;              }              80% {                transform: skewX(2deg);              }              to {                opacity: 1;                transform: translate3d(0, 0, 0);              }            }                    @keyframes slideUp {                0% {                    opacity: 0;                    transform: translateY(30px);                }                100% {                    opacity: 1;                    transform: inherit;                }            }                    @keyframes slideRight {                0% {                    opacity: 0;                    transform: translateX(30px);                }                100% {                    opacity: 1;                    transform: translateX(0);                }            }                    @keyframes zoomOut {                0% {                    opacity: 0;                    transform: scale(1.5);                }                100% {                    opacity: 1;                    transform: scale(1);                }            }        .animator-hidden { display: none; }</style><g id="freepik--background-complete--inject-2" class="animable animator-active animator-hidden" style="transform-origin: 250px 228.23px;"><rect x="416.78" y="398.49" width="33.12" height="0.25" style="fill: rgb(235, 235, 235); transform-origin: 433.34px 398.615px;" id="el85kgn6mjawk" class="animable"></rect><rect x="322.53" y="401.21" width="8.69" height="0.25" style="fill: rgb(235, 235, 235); transform-origin: 326.875px 401.335px;" id="el56pykgey6po" class="animable"></rect><rect x="396.59" y="389.21" width="19.19" height="0.25" style="fill: rgb(235, 235, 235); transform-origin: 406.185px 389.335px;" id="elxg1nkqvody" class="animable"></rect><rect x="52.46" y="390.89" width="43.19" height="0.25" style="fill: rgb(235, 235, 235); transform-origin: 74.055px 391.015px;" id="elvw94o39lz4h" class="animable"></rect><rect x="104.56" y="390.89" width="6.33" height="0.25" style="fill: rgb(235, 235, 235); transform-origin: 107.725px 391.015px;" id="el9vzd08ncyl" class="animable"></rect><rect x="131.47" y="395.11" width="93.68" height="0.25" style="fill: rgb(235, 235, 235); transform-origin: 178.31px 395.235px;" id="elws4ghbkdk1" class="animable"></rect><path d="M238.4,337.8H45.3a5.71,5.71,0,0,1-5.71-5.71V60.66A5.71,5.71,0,0,1,45.3,55H238.4a5.71,5.71,0,0,1,5.71,5.71V332.09A5.71,5.71,0,0,1,238.4,337.8ZM45.3,55.2a5.47,5.47,0,0,0-5.46,5.46V332.09a5.47,5.47,0,0,0,5.46,5.46H238.4a5.47,5.47,0,0,0,5.46-5.46V60.66a5.47,5.47,0,0,0-5.46-5.46Z" style="fill: rgb(235, 235, 235); transform-origin: 141.85px 196.4px;" id="elns4j886w0fe" class="animable"></path><path d="M454.7,337.8H261.6a5.71,5.71,0,0,1-5.71-5.71V60.66A5.71,5.71,0,0,1,261.6,55H454.7a5.71,5.71,0,0,1,5.71,5.71V332.09A5.71,5.71,0,0,1,454.7,337.8ZM261.6,55.2a5.47,5.47,0,0,0-5.46,5.46V332.09a5.47,5.47,0,0,0,5.46,5.46H454.7a5.47,5.47,0,0,0,5.46-5.46V60.66a5.47,5.47,0,0,0-5.46-5.46Z" style="fill: rgb(235, 235, 235); transform-origin: 358.15px 196.4px;" id="eljvkpc4lf5sq" class="animable"></path><rect y="382.4" width="500" height="0.25" style="fill: rgb(235, 235, 235); transform-origin: 250px 382.525px;" id="elc019lty65" class="animable"></rect><path d="M191.64,138.28l54,54a15.93,15.93,0,0,0,3.78,16.55c2.43,2.44,6,3.4,9.37,3.68a1.22,1.22,0,0,0,1-2.08l-6.36-6.36,3.29-10.53,10.53-3.29,6.36,6.36a1.23,1.23,0,0,0,2.09-1c-.29-3.4-1.25-6.94-3.69-9.37a15.93,15.93,0,0,0-16.55-3.78l-54-54A16,16,0,0,0,197.65,112c-2.44-2.43-6-3.4-9.38-3.68a1.22,1.22,0,0,0-1,2.08l6.36,6.36-3.3,10.53-10.52,3.3-6.36-6.36a1.22,1.22,0,0,0-2.09.95c.28,3.4,1.25,6.94,3.68,9.37A15.94,15.94,0,0,0,191.64,138.28Z" style="fill: rgb(240, 240, 240); transform-origin: 223.531px 160.415px;" id="eluaymauzqni9" class="animable"></path><g id="eli5ljzibo0pg"><rect x="220.07" y="126.11" width="7.48" height="69.1" rx="2.2" style="fill: rgb(250, 250, 250); transform-origin: 223.81px 160.66px; transform: rotate(135deg);" class="animable"></rect></g><path d="M70.35,276.81l30.81-19.59V226.43L66.83,269.37a2.66,2.66,0,0,0-.59,1.67v3.52A2.67,2.67,0,0,0,70.35,276.81Z" style="fill: rgb(235, 235, 235); transform-origin: 83.7px 251.831px;" id="el7j4z0atqz59" class="animable"></path><path d="M102.35,226.43v30.79l30.8,19.59a2.67,2.67,0,0,0,4.11-2.25V271a2.65,2.65,0,0,0-.58-1.67Z" style="fill: rgb(235, 235, 235); transform-origin: 119.805px 251.831px;" id="el2cr4m4yehcl" class="animable"></path><path d="M86.69,266.42l14.47-9.2V226.43L85,246.7C85.49,253.19,86.07,259.82,86.69,266.42Z" style="fill: rgb(224, 224, 224); transform-origin: 93.08px 246.425px;" id="el4ghffh5xskm" class="animable"></path><path d="M118.55,246.7l-16.2-20.27v30.79l14.46,9.2C117.44,259.82,118,253.19,118.55,246.7Z" style="fill: rgb(224, 224, 224); transform-origin: 110.45px 246.425px;" id="el8ieaic9ewl6" class="animable"></path><path d="M101.75,133.86c-9.46,0-17.13,37.76-17.13,50.9,0,7.17,2.28,46.71,5.89,81.19a86.76,86.76,0,0,0,10.22.58,85.23,85.23,0,0,0,12.3-.85c3.59-34.42,5.86-73.77,5.86-80.92C118.89,171.62,111.22,133.86,101.75,133.86Z" style="fill: rgb(245, 245, 245); transform-origin: 101.755px 200.195px;" id="elc9zk5nkj7mr" class="animable"></path><path d="M101.75,164.42q7.41,0,14.41-.59c-3-14.56-8.36-30-14.41-30s-11.35,15.41-14.4,30C92,164.22,96.82,164.42,101.75,164.42Z" style="fill: rgb(230, 230, 230); transform-origin: 101.755px 149.125px;" id="elqt280w9bsc" class="animable"></path><path d="M101.75,196.18a12.49,12.49,0,1,1,12.49-12.49A12.5,12.5,0,0,1,101.75,196.18Zm0-22.73A10.25,10.25,0,1,0,112,183.69,10.25,10.25,0,0,0,101.75,173.45Z" style="fill: rgb(235, 235, 235); transform-origin: 101.75px 183.69px;" id="elvoug7os6hyi" class="animable"></path><circle cx="101.75" cy="183.69" r="8.04" style="fill: rgb(235, 235, 235); transform-origin: 101.75px 183.69px;" id="elvpqqv7indn9" class="animable"></circle><path d="M106.36,177.11l-6.69,14.34a8,8,0,0,0,2.08.28,8.64,8.64,0,0,0,1.15-.09l5.68-12.18A8.29,8.29,0,0,0,106.36,177.11Z" style="fill: rgb(224, 224, 224); transform-origin: 104.125px 184.42px;" id="el1h5earktj8c" class="animable"></path><path d="M97.36,190.42,104.09,176a7.86,7.86,0,0,0-1.19-.25l-6.49,13.93A7.56,7.56,0,0,0,97.36,190.42Z" style="fill: rgb(224, 224, 224); transform-origin: 100.25px 183.085px;" id="elplil2vl3ex" class="animable"></path><rect x="99.05" y="226.43" width="5.41" height="53" rx="2.42" style="fill: rgb(224, 224, 224); transform-origin: 101.755px 252.93px;" id="elrfeben83iy" class="animable"></rect><path d="M313.84,139.21a32.27,32.27,0,0,0,.08-4.16l5.44-2.88a33.45,33.45,0,0,0-.87-4.85l-5.94.1a28,28,0,0,0-3.53-7.2l3.49-5.08a32,32,0,0,0-3.24-3.55l-5.35,3a27.91,27.91,0,0,0-6.83-4.17l.61-5.93a36.17,36.17,0,0,0-4.73-1.3l-3.34,5.2a29.42,29.42,0,0,0-4.13-.29,30.58,30.58,0,0,0-4.18.29l-2.43-5.2a42,42,0,0,0-5,1.3l-.42,5.93a35.27,35.27,0,0,0-7.56,4.17l-4.82-3a41.84,41.84,0,0,0-3.86,3.55l2.61,5.08a35.15,35.15,0,0,0-4.8,7.2l-5.92-.1a40.42,40.42,0,0,0-1.72,4.85l4.94,2.88a30.83,30.83,0,0,0-.73,8.31l-5.44,2.89a33.56,33.56,0,0,0,.87,4.84L253,151a27.87,27.87,0,0,0,3.53,7.2l-3.49,5.09a32,32,0,0,0,3.24,3.55l5.35-3.05a27.57,27.57,0,0,0,6.83,4.16l-.61,5.93a33.29,33.29,0,0,0,4.73,1.3l3.34-5.19a31,31,0,0,0,4.13.28,32.25,32.25,0,0,0,4.18-.28l2.43,5.19a38.05,38.05,0,0,0,5-1.3l.42-5.93a34.57,34.57,0,0,0,7.56-4.16l4.82,3.05a41.84,41.84,0,0,0,3.86-3.55l-2.6-5.09a34.84,34.84,0,0,0,4.79-7.2l5.92.1a39.19,39.19,0,0,0,1.72-4.84l-4.94-2.89A31.73,31.73,0,0,0,313.84,139.21Zm-32,10.56a9.52,9.52,0,0,1-9.63-10.56,11.76,11.76,0,0,1,11.48-10.56,9.52,9.52,0,0,1,9.63,10.56A11.76,11.76,0,0,1,281.86,149.77Z" style="fill: rgb(240, 240, 240); transform-origin: 282.765px 139.185px;" id="elbzh4xbzwhfi" class="animable"></path><path d="M373.29,113.14a23.8,23.8,0,0,0,.09-2.66l7.61-4a30.26,30.26,0,0,0-.6-3.34l-8.32.14a21.22,21.22,0,0,0-2.26-4.61l4.9-7.12a28.67,28.67,0,0,0-2.23-2.44L365,93.35a22,22,0,0,0-4.37-2.67l.86-8.3a31.75,31.75,0,0,0-3.25-.89l-4.67,7.26a23.15,23.15,0,0,0-2.65-.15,23.94,23.94,0,0,0-2.68.15l-3.4-7.26c-1.15.24-2.29.54-3.41.89l-.59,8.3A27.81,27.81,0,0,0,336,93.35l-6.75-4.27a36,36,0,0,0-2.65,2.44l3.65,7.12a26.79,26.79,0,0,0-3.07,4.61l-8.29-.14a34.83,34.83,0,0,0-1.19,3.34l6.91,4a26.2,26.2,0,0,0-.38,2.66,26.66,26.66,0,0,0-.09,2.67l-7.61,4a30.51,30.51,0,0,0,.6,3.33l8.32-.14a21.92,21.92,0,0,0,2.26,4.61l-4.89,7.13a28.41,28.41,0,0,0,2.22,2.44l7.5-4.27a21.78,21.78,0,0,0,4.38,2.66l-.87,8.31a31.75,31.75,0,0,0,3.25.89l4.67-7.26a25.68,25.68,0,0,0,2.65.14,26.42,26.42,0,0,0,2.68-.14l3.4,7.26c1.15-.24,2.29-.54,3.41-.89l.59-8.31a27.76,27.76,0,0,0,4.84-2.66l6.75,4.27c.92-.77,1.81-1.59,2.65-2.44l-3.64-7.13a26.93,26.93,0,0,0,3.06-4.61l8.3.14c.44-1.09.84-2.2,1.18-3.33l-6.91-4A26.39,26.39,0,0,0,373.29,113.14Zm-25.45,10.41a9.39,9.39,0,0,1-9.49-10.41,11.58,11.58,0,0,1,11.31-10.4,9.37,9.37,0,0,1,9.49,10.4A11.58,11.58,0,0,1,347.84,123.55Z" style="fill: rgb(235, 235, 235); transform-origin: 348.76px 113.115px;" id="el5wluq1s6vl7" class="animable"></path><path d="M429.14,200.2c0-.44.05-.87,0-1.3l3.7-2c-.07-.55-.17-1.09-.29-1.62l-4,.07a11.37,11.37,0,0,0-1.1-2.24l2.37-3.46a13.48,13.48,0,0,0-1.08-1.19l-3.64,2.08a10.46,10.46,0,0,0-2.13-1.3l.42-4a16,16,0,0,0-1.58-.44l-2.27,3.53c-.42,0-.85-.07-1.28-.07s-.88,0-1.3.07l-1.66-3.53c-.56.12-1.11.27-1.65.44l-.29,4a13.13,13.13,0,0,0-2.35,1.3l-3.28-2.08c-.45.38-.88.77-1.29,1.19l1.77,3.46a13,13,0,0,0-1.49,2.24l-4-.07a15.56,15.56,0,0,0-.57,1.62l3.35,2c-.08.43-.14.86-.18,1.3a11.12,11.12,0,0,0,0,1.29l-3.7,2a12.48,12.48,0,0,0,.29,1.62l4-.07a10.36,10.36,0,0,0,1.1,2.24l-2.38,3.46a15.25,15.25,0,0,0,1.08,1.19l3.65-2.08a10.39,10.39,0,0,0,2.12,1.3l-.42,4c.52.17,1,.32,1.58.44l2.27-3.53c.42,0,.85.07,1.29.07s.87,0,1.3-.07l1.65,3.53c.56-.12,1.11-.27,1.66-.44l.28-4a13.22,13.22,0,0,0,2.36-1.3l3.28,2.08c.44-.38.87-.77,1.29-1.19l-1.78-3.46A13,13,0,0,0,427.7,205l4,.07c.22-.53.41-1.07.58-1.62l-3.36-2C429,201.06,429.1,200.63,429.14,200.2Zm-12.37,5.05a4.55,4.55,0,0,1-4.61-5.05,5.62,5.62,0,0,1,5.49-5.06,4.56,4.56,0,0,1,4.62,5.06A5.63,5.63,0,0,1,416.77,205.25Z" style="fill: rgb(240, 240, 240); transform-origin: 417.23px 200.195px;" id="elfwdb9cwsttv" class="animable"></path><path d="M419.24,151.07a23.46,23.46,0,0,0,.08-2.36l6.75-3.58a26,26,0,0,0-.53-2.95l-7.38.12a19.89,19.89,0,0,0-2-4.09l4.34-6.31a27.08,27.08,0,0,0-2-2.17l-6.65,3.79a19.05,19.05,0,0,0-3.88-2.36l.77-7.37a27.31,27.31,0,0,0-2.89-.79l-4.14,6.44a22.66,22.66,0,0,0-2.35-.13,23.21,23.21,0,0,0-2.37.13L394,123a30.61,30.61,0,0,0-3,.79l-.52,7.37a24.28,24.28,0,0,0-4.3,2.36l-6-3.79c-.82.69-1.6,1.41-2.35,2.17l3.23,6.31a24.84,24.84,0,0,0-2.72,4.09l-7.35-.12a30.39,30.39,0,0,0-1.05,2.95l6.12,3.58a23.1,23.1,0,0,0-.33,2.36,20.91,20.91,0,0,0-.08,2.36L368.89,157a26.16,26.16,0,0,0,.53,3l7.38-.13a18.93,18.93,0,0,0,2,4.09l-4.34,6.32a25.34,25.34,0,0,0,2,2.16l6.64-3.78A19.88,19.88,0,0,0,387,171l-.77,7.36a27.84,27.84,0,0,0,2.88.8l4.15-6.45a20.07,20.07,0,0,0,2.35.13,20.91,20.91,0,0,0,2.37-.13l3,6.45c1-.22,2-.48,3-.8l.52-7.36a24.48,24.48,0,0,0,4.29-2.36l6,3.78c.82-.68,1.6-1.4,2.35-2.16l-3.23-6.32a24,24,0,0,0,2.72-4.09L424,160a30.57,30.57,0,0,0,1-3l-6.13-3.58A20.32,20.32,0,0,0,419.24,151.07Zm-22.89,12.86a11.6,11.6,0,0,1-11.73-12.86,14.31,14.31,0,0,1,14-12.86,11.6,11.6,0,0,1,11.74,12.86A14.32,14.32,0,0,1,396.35,163.93Z" style="fill: rgb(245, 245, 245); transform-origin: 397.48px 151.08px;" id="elqbj3eri9h4i" class="animable"></path><path d="M139.65,132.85l31.8-31.79a9.38,9.38,0,0,0,9.74-2.23,8.62,8.62,0,0,0,2.17-5.52.72.72,0,0,0-1.23-.56l-3.74,3.75-6.2-1.94-1.94-6.2L174,84.61a.72.72,0,0,0-.57-1.23,8.77,8.77,0,0,0-5.52,2.17,9.41,9.41,0,0,0-2.22,9.75l-31.8,31.79a9.38,9.38,0,0,0-9.74,2.23,8.75,8.75,0,0,0-2.17,5.52.72.72,0,0,0,1.23.56l3.74-3.75,6.2,1.95,1.94,6.19-3.74,3.75a.72.72,0,0,0,.56,1.23,8.75,8.75,0,0,0,5.52-2.17A9.39,9.39,0,0,0,139.65,132.85Z" style="fill: rgb(240, 240, 240); transform-origin: 152.67px 114.075px;" id="eljcn4r6niyee" class="animable"></path><path d="M138.45,128.3h0a2.2,2.2,0,0,1,0-3.11L164.1,99.53a2.21,2.21,0,0,1,3.12,0h0a2.2,2.2,0,0,1,0,3.11L141.56,128.3A2.2,2.2,0,0,1,138.45,128.3Z" style="fill: rgb(250, 250, 250); transform-origin: 152.835px 113.915px;" id="el7m01x3jpgbw" class="animable"></path></g><g id="freepik--Shadow--inject-2" class="animable" style="transform-origin: 250px 415.69px;"><ellipse id="freepik--path--inject-2" cx="250" cy="415.69" rx="193.89" ry="11.32" style="fill: rgb(245, 245, 245); transform-origin: 250px 415.69px;" class="animable"></ellipse></g><g id="freepik--Device--inject-2" class="animable" style="transform-origin: 256.996px 282.849px;"><path d="M252.89,301.09l-19.1,98.24h49l19.1-98.24Zm20.32,62.84-2.75,14.14a9,9,0,0,1-8.44,7.07,5.66,5.66,0,0,1-5.69-7.07l2.74-14.14a9,9,0,0,1,8.45-7.07A5.66,5.66,0,0,1,273.21,363.93Z" style="fill: rgb(38, 50, 56); transform-origin: 267.84px 350.21px;" id="elvseohiewdgn" class="animable"></path><g id="elzdbxp9vqflk"><path d="M252.89,301.09l-19.1,98.24h49l19.1-98.24Zm20.32,62.84-2.75,14.14a9,9,0,0,1-8.44,7.07,5.66,5.66,0,0,1-5.69-7.07l2.74-14.14a9,9,0,0,1,8.45-7.07A5.66,5.66,0,0,1,273.21,363.93Z" style="fill: rgb(255, 255, 255); opacity: 0.3; transform-origin: 267.84px 350.21px;" class="animable"></path></g><polygon points="233.9 399.33 229.6 399.33 248.69 301.09 252.99 301.09 233.9 399.33" style="fill: rgb(38, 50, 56); transform-origin: 241.295px 350.21px;" id="el56d9o1y2ct5" class="animable"></polygon><g id="elsjzeuk3e4c"><polygon points="233.9 399.33 229.6 399.33 248.69 301.09 252.99 301.09 233.9 399.33" style="fill: rgb(255, 255, 255); opacity: 0.6; transform-origin: 241.295px 350.21px;" class="animable"></polygon></g><g id="ellxphmnppdsk"><polygon points="252.88 301.09 248.69 301.09 238.51 353.5 291.7 353.5 301.89 301.09 252.99 301.09 252.88 301.09" style="opacity: 0.2; transform-origin: 270.2px 327.295px;" class="animable"></polygon></g><path d="M267.52,356.86a7.67,7.67,0,0,0-2,.27,5.64,5.64,0,0,1,3.82,6.8l-2.74,14.14a9.12,9.12,0,0,1-6.48,6.8,6.65,6.65,0,0,0,1.87.27,9,9,0,0,0,8.44-7.07l2.75-14.14A5.66,5.66,0,0,0,267.52,356.86Z" style="fill: rgb(38, 50, 56); transform-origin: 266.74px 370.999px;" id="elj472ivchmig" class="animable"></path><g id="elzr8yl28q0i"><path d="M267.52,356.86a7.67,7.67,0,0,0-2,.27,5.64,5.64,0,0,1,3.82,6.8l-2.74,14.14a9.12,9.12,0,0,1-6.48,6.8,6.65,6.65,0,0,0,1.87.27,9,9,0,0,0,8.44-7.07l2.75-14.14A5.66,5.66,0,0,0,267.52,356.86Z" style="fill: rgb(255, 255, 255); opacity: 0.6; transform-origin: 266.74px 370.999px;" class="animable"></path></g><rect x="189.83" y="398.9" width="70.32" height="15.76" style="fill: rgb(176, 190, 197); transform-origin: 224.99px 406.78px;" id="ell76xd7r8w0k" class="animable"></rect><g id="eljs6sek9n0f"><rect x="189.83" y="398.9" width="70.32" height="15.76" style="fill: rgb(255, 255, 255); opacity: 0.4; transform-origin: 224.99px 406.78px;" class="animable"></rect></g><rect x="260.15" y="398.9" width="92.84" height="15.76" style="fill: rgb(176, 190, 197); transform-origin: 306.57px 406.78px;" id="eljaclv6ypv6i" class="animable"></rect><g id="elnv56kibb1nm"><rect x="260.15" y="398.9" width="92.84" height="15.76" style="fill: rgb(255, 255, 255); opacity: 0.6; transform-origin: 306.57px 406.78px;" class="animable"></rect></g><path d="M144.79,347.67H391.86a8.13,8.13,0,0,0,8.28-8,7.67,7.67,0,0,0-.05-1.07L384.48,160.09a10.05,10.05,0,0,0-9.82-9.05H127.59a8.13,8.13,0,0,0-8.28,8,7.67,7.67,0,0,0,0,1.07L135,338.63A10,10,0,0,0,144.79,347.67Z" style="fill: rgb(38, 50, 56); transform-origin: 259.717px 249.355px;" id="elm26ktrdpst" class="animable"></path><g id="elnnfd2spa3v"><path d="M144.79,347.67H391.86a8.13,8.13,0,0,0,8.28-8,7.67,7.67,0,0,0-.05-1.07L384.48,160.09a10.05,10.05,0,0,0-9.82-9.05H127.59a8.13,8.13,0,0,0-8.28,8,7.67,7.67,0,0,0,0,1.07L135,338.63A10,10,0,0,0,144.79,347.67Z" style="fill: rgb(255, 255, 255); opacity: 0.3; transform-origin: 259.717px 249.355px;" class="animable"></path></g><path d="M398.42,319.34l1.68,19.29a8.14,8.14,0,0,1-7.16,9,7.6,7.6,0,0,1-1.07.05H144.79a10,10,0,0,1-9.81-9.05l-1.7-19.29Z" style="fill: rgb(176, 190, 197); transform-origin: 266.716px 333.511px;" id="elgdxmknf49tf" class="animable"></path><g id="elh28i6ceubfp"><path d="M398.42,319.34l1.68,19.29a8.14,8.14,0,0,1-7.16,9,7.6,7.6,0,0,1-1.07.05H144.79a10,10,0,0,1-9.81-9.05l-1.7-19.29Z" style="fill: rgb(255, 255, 255); isolation: isolate; opacity: 0.6; transform-origin: 266.716px 333.511px;" class="animable"></path></g><path d="M142,313.87H388.75a4.4,4.4,0,0,0,4.49-4.32,3.71,3.71,0,0,0,0-.58L380.31,161.42a5.44,5.44,0,0,0-5.33-4.89H128.24a4.41,4.41,0,0,0-4.5,4.32,5.44,5.44,0,0,0,0,.57L136.67,309A5.45,5.45,0,0,0,142,313.87Z" style="fill: rgb(176, 190, 197); transform-origin: 258.492px 235.2px;" id="el60f5kv09gtf" class="animable"></path><g id="elsbxbkp70j3"><path d="M142,313.87H388.75a4.4,4.4,0,0,0,4.49-4.32,3.71,3.71,0,0,0,0-.58L380.31,161.42a5.44,5.44,0,0,0-5.33-4.89H128.24a4.41,4.41,0,0,0-4.5,4.32,5.44,5.44,0,0,0,0,.57L136.67,309A5.45,5.45,0,0,0,142,313.87Z" style="fill: rgb(176, 190, 197); isolation: isolate; opacity: 0.8; transform-origin: 258.492px 235.2px;" class="animable"></path></g><g id="elmmfixh03sbj"><path d="M142,313.87H388.75a4.4,4.4,0,0,0,4.49-4.32,3.71,3.71,0,0,0,0-.58L380.31,161.42a5.44,5.44,0,0,0-5.33-4.89H128.24a4.41,4.41,0,0,0-4.5,4.32,5.44,5.44,0,0,0,0,.57L136.67,309A5.45,5.45,0,0,0,142,313.87Z" style="fill: rgb(255, 255, 255); isolation: isolate; opacity: 0.8; transform-origin: 258.492px 235.2px;" class="animable"></path></g><g id="ele2j90ysa1dq"><g style="opacity: 0.5; transform-origin: 257.915px 235.2px;" class="animable"><polygon points="319.61 313.87 342.13 313.87 308.69 156.53 286.16 156.53 319.61 313.87" style="fill: rgb(255, 255, 255); transform-origin: 314.145px 235.2px;" id="el095exgix2f86" class="animable"></polygon><polygon points="305.34 313.87 311.11 313.87 277.66 156.53 271.89 156.53 305.34 313.87" style="fill: rgb(255, 255, 255); transform-origin: 291.5px 235.2px;" id="elklw58lyc44" class="animable"></polygon><polygon points="221.42 313.87 225.19 313.87 191.75 156.53 187.97 156.53 221.42 313.87" style="fill: rgb(255, 255, 255); transform-origin: 206.58px 235.2px;" id="eloz797riqd5q" class="animable"></polygon><polygon points="207.15 313.87 212.91 313.87 179.47 156.53 173.7 156.53 207.15 313.87" style="fill: rgb(255, 255, 255); transform-origin: 193.305px 235.2px;" id="elr2yx4abo0k" class="animable"></polygon></g></g><path d="M122.13,151.07h5.46a8.13,8.13,0,0,0-8.28,8,7.6,7.6,0,0,0,0,1.07L135,338.63a10,10,0,0,0,9.81,9.05h-5.46a10.05,10.05,0,0,1-9.82-9.05L113.89,160.1a8.15,8.15,0,0,1,7.19-9A9.23,9.23,0,0,1,122.13,151.07Z" style="fill: rgb(38, 50, 56); transform-origin: 129.325px 249.373px;" id="elsk9uqu2wrdp" class="animable"></path><g id="ell7zhxykzz9l"><path d="M122.13,151.07h5.46a8.13,8.13,0,0,0-8.28,8,7.6,7.6,0,0,0,0,1.07L135,338.63a10,10,0,0,0,9.81,9.05h-5.46a10.05,10.05,0,0,1-9.82-9.05L113.89,160.1a8.15,8.15,0,0,1,7.19-9A9.23,9.23,0,0,1,122.13,151.07Z" style="fill: rgb(255, 255, 255); isolation: isolate; opacity: 0.6; transform-origin: 129.325px 249.373px;" class="animable"></path></g><path d="M176.24,206.65H165.1a1.81,1.81,0,0,1-1.76-1.62h0a1.47,1.47,0,0,1,1.48-1.62H176a1.79,1.79,0,0,1,1.75,1.62h0A1.46,1.46,0,0,1,176.24,206.65Z" style="fill: rgb(176, 190, 197); transform-origin: 170.546px 205.031px;" id="elzsl1ada7wy" class="animable"></path><path d="M203.73,193.71h-8.26a1.79,1.79,0,0,1-1.76-1.61h0a1.45,1.45,0,0,1,1.47-1.62h8.27a1.8,1.8,0,0,1,1.76,1.62h0A1.46,1.46,0,0,1,203.73,193.71Z" style="fill: rgb(176, 190, 197); transform-origin: 199.459px 192.095px;" id="elzt9p2uxudk" class="animable"></path><path d="M294.44,206.65H283.3a1.79,1.79,0,0,1-1.75-1.62h0a1.46,1.46,0,0,1,1.47-1.62h11.14a1.81,1.81,0,0,1,1.76,1.62h0A1.47,1.47,0,0,1,294.44,206.65Z" style="fill: rgb(176, 190, 197); transform-origin: 288.734px 205.03px;" id="elau83go7uhk" class="animable"></path><path d="M272.17,206.65H187a1.8,1.8,0,0,1-1.76-1.62h0a1.46,1.46,0,0,1,1.47-1.62h85.15a1.8,1.8,0,0,1,1.76,1.62h0A1.46,1.46,0,0,1,272.17,206.65Z" style="fill: rgb(38, 50, 56); transform-origin: 229.43px 205.03px;" id="el3vagjb4sqyv" class="animable"></path><path d="M177.21,217.78H166.08a1.79,1.79,0,0,1-1.76-1.61h0a1.45,1.45,0,0,1,1.47-1.62h11.14a1.8,1.8,0,0,1,1.76,1.62h0A1.45,1.45,0,0,1,177.21,217.78Z" style="fill: rgb(176, 190, 197); transform-origin: 171.504px 216.165px;" id="el2hx8p69qum1" class="animable"></path><path d="M211,217.78H188a1.8,1.8,0,0,1-1.76-1.61h0a1.47,1.47,0,0,1,1.48-1.62h23a1.79,1.79,0,0,1,1.76,1.62h0A1.45,1.45,0,0,1,211,217.78Z" style="fill: rgb(176, 190, 197); transform-origin: 199.361px 216.165px;" id="elg6u08lwqa2i" class="animable"></path><path d="M252.3,217.78H218.17a1.8,1.8,0,0,1-1.76-1.61h0a1.46,1.46,0,0,1,1.48-1.62H252a1.8,1.8,0,0,1,1.76,1.62h0A1.45,1.45,0,0,1,252.3,217.78Z" style="fill: rgb(176, 190, 197); transform-origin: 235.085px 216.165px;" id="elf6mhf968igj" class="animable"></path><path d="M178.19,228.92H167.05a1.8,1.8,0,0,1-1.76-1.61h0a1.46,1.46,0,0,1,1.48-1.62h11.14a1.79,1.79,0,0,1,1.75,1.62h0A1.45,1.45,0,0,1,178.19,228.92Z" style="fill: rgb(176, 190, 197); transform-origin: 172.475px 227.305px;" id="elixla83odi1" class="animable"></path><path d="M234.59,228.92H189a1.79,1.79,0,0,1-1.76-1.61h0a1.45,1.45,0,0,1,1.47-1.62h45.63a1.8,1.8,0,0,1,1.76,1.62h0A1.45,1.45,0,0,1,234.59,228.92Z" style="fill: rgb(38, 50, 56); transform-origin: 211.67px 227.306px;" id="el090dk06nzouq" class="animable"></path><path d="M179.16,240.06H168a1.79,1.79,0,0,1-1.75-1.62h0a1.45,1.45,0,0,1,1.47-1.61h11.14a1.8,1.8,0,0,1,1.76,1.61h0A1.46,1.46,0,0,1,179.16,240.06Z" style="fill: rgb(176, 190, 197); transform-origin: 173.435px 238.445px;" id="el3pnca38i3jp" class="animable"></path><path d="M209.16,240.06H189.94a1.8,1.8,0,0,1-1.76-1.62h0a1.46,1.46,0,0,1,1.48-1.61h19.22a1.8,1.8,0,0,1,1.76,1.61h0A1.46,1.46,0,0,1,209.16,240.06Z" style="fill: rgb(38, 50, 56); transform-origin: 199.411px 238.445px;" id="el75o12lhe3xl" class="animable"></path><path d="M253.17,260.54H234a1.8,1.8,0,0,1-1.76-1.62h0a1.45,1.45,0,0,1,1.47-1.61h19.23a1.78,1.78,0,0,1,1.75,1.61h0A1.46,1.46,0,0,1,253.17,260.54Z" style="fill: rgb(176, 190, 197); transform-origin: 243.465px 258.926px;" id="elrj0kkvhd0xe" class="animable"></path><path d="M352.69,260.54H263a1.81,1.81,0,0,1-1.76-1.62h0a1.45,1.45,0,0,1,1.48-1.61h89.73a1.78,1.78,0,0,1,1.75,1.61h0A1.46,1.46,0,0,1,352.69,260.54Z" style="fill: rgb(38, 50, 56); transform-origin: 307.72px 258.925px;" id="el25ra9cnbpxo" class="animable"></path><path d="M319.89,271.68H227.38a1.8,1.8,0,0,1-1.76-1.62h0a1.46,1.46,0,0,1,1.47-1.62h92.52a1.81,1.81,0,0,1,1.76,1.62h0A1.47,1.47,0,0,1,319.89,271.68Z" style="fill: rgb(176, 190, 197); transform-origin: 273.494px 270.06px;" id="elvhfes1vj9h" class="animable"></path><path d="M353.66,271.68H331.39a1.8,1.8,0,0,1-1.76-1.62h0a1.46,1.46,0,0,1,1.47-1.62h22.28a1.81,1.81,0,0,1,1.76,1.62h0A1.46,1.46,0,0,1,353.66,271.68Z" style="fill: rgb(176, 190, 197); transform-origin: 342.385px 270.06px;" id="elb6zx748njit" class="animable"></path><path d="M303.44,282.81H294.1a1.8,1.8,0,0,1-1.76-1.61h0a1.46,1.46,0,0,1,1.48-1.62h9.34a1.8,1.8,0,0,1,1.76,1.62h0A1.46,1.46,0,0,1,303.44,282.81Z" style="fill: rgb(176, 190, 197); transform-origin: 298.629px 281.195px;" id="eljvfuloefujc" class="animable"></path><path d="M354.64,282.81H313.5a1.8,1.8,0,0,1-1.76-1.61h0a1.46,1.46,0,0,1,1.48-1.62h41.13a1.79,1.79,0,0,1,1.76,1.62h0A1.45,1.45,0,0,1,354.64,282.81Z" style="fill: rgb(38, 50, 56); transform-origin: 333.925px 281.195px;" id="el9uxbib1gv5" class="animable"></path><path d="M238,294H210.64a1.79,1.79,0,0,1-1.75-1.62h0a1.45,1.45,0,0,1,1.47-1.61h27.31a1.78,1.78,0,0,1,1.75,1.61h0A1.45,1.45,0,0,1,238,294Z" style="fill: rgb(38, 50, 56); transform-origin: 224.156px 292.385px;" id="el1ohz6mqupyf" class="animable"></path><path d="M355.61,294h-81.2a1.79,1.79,0,0,1-1.75-1.62h0a1.45,1.45,0,0,1,1.47-1.61h81.2a1.8,1.8,0,0,1,1.76,1.61h0A1.47,1.47,0,0,1,355.61,294Z" style="fill: rgb(38, 50, 56); transform-origin: 314.874px 292.385px;" id="eln0kbblfjo2" class="animable"></path><path d="M269.16,240.06h-49a1.8,1.8,0,0,1-1.76-1.62h0a1.45,1.45,0,0,1,1.48-1.61h49a1.8,1.8,0,0,1,1.76,1.61h0A1.47,1.47,0,0,1,269.16,240.06Z" style="fill: rgb(38, 50, 56); transform-origin: 244.519px 238.445px;" id="elyfyics9gtj" class="animable"></path><path d="M187.68,251.2H169a1.81,1.81,0,0,1-1.76-1.62h0a1.46,1.46,0,0,1,1.48-1.62H187.4a1.81,1.81,0,0,1,1.76,1.62h0A1.47,1.47,0,0,1,187.68,251.2Z" style="fill: rgb(38, 50, 56); transform-origin: 178.199px 249.58px;" id="elgjhanoopru" class="animable"></path><path d="M205.7,251.2h-9.93a1.8,1.8,0,0,1-1.76-1.62h0a1.46,1.46,0,0,1,1.47-1.62h9.94a1.81,1.81,0,0,1,1.76,1.62h0A1.47,1.47,0,0,1,205.7,251.2Z" style="fill: rgb(38, 50, 56); transform-origin: 200.594px 249.58px;" id="elgpmh7dj1077" class="animable"></path><path d="M170.29,185.8l-4.93,1.86,5.25,1.85a1.13,1.13,0,0,1,.74.93v0a.91.91,0,0,1-1.27.93L164,189.14a1.66,1.66,0,0,1-1.06-1.36l0-.24a1.33,1.33,0,0,1,.82-1.36l5.73-2.25a1.08,1.08,0,0,1,1.43.93h0A.91.91,0,0,1,170.29,185.8Z" style="fill: rgb(38, 50, 56); transform-origin: 167.144px 187.658px;" id="el2uo3hqpxsvm" class="animable"></path><path d="M177.34,179.18h0a1.24,1.24,0,0,1,1.2,1.5l-3.68,14a1,1,0,0,1-1,.76h0a1.25,1.25,0,0,1-1.2-1.51l3.68-14A1,1,0,0,1,177.34,179.18Z" style="fill: rgb(38, 50, 56); transform-origin: 175.6px 187.31px;" id="el3s5eb3lazgi" class="animable"></path><path d="M188.18,187.54l0,.24a1.3,1.3,0,0,1-.82,1.36l-5.72,2.25a1.08,1.08,0,0,1-1.43-.93v0a.89.89,0,0,1,.57-.93l4.93-1.85-5.26-1.86a1.13,1.13,0,0,1-.73-.94h0a.91.91,0,0,1,1.27-.93l6.11,2.25A1.63,1.63,0,0,1,188.18,187.54Z" style="fill: rgb(38, 50, 56); transform-origin: 183.952px 187.662px;" id="elv49dvrnm6w" class="animable"></path></g><g id="freepik--Bugs--inject-2" class="animable" style="transform-origin: 278.958px 231.621px;"><path d="M378.08,270.74c0-.24-.7-.56-1.67-.73a4.46,4.46,0,0,0-1.51-.06,4.78,4.78,0,0,0-.69-1.31c-.56-.8-1.17-1.34-1.36-1.21s.1.9.66,1.7a3.26,3.26,0,0,0,1.25,1.22,4.23,4.23,0,0,0,1.51.5C377.23,271,378,271,378.08,270.74Z" style="fill: rgb(38, 50, 56); transform-origin: 375.436px 269.181px;" id="eluqomal3nyg" class="animable"></path><path d="M373,273.23a3.18,3.18,0,0,0,.28-1.71,4.23,4.23,0,0,0-.45-1.53c-.42-.89-.92-1.52-1.14-1.42s-.05.9.36,1.78a4.63,4.63,0,0,0,.82,1.28,4.73,4.73,0,0,0-.68,1.31c-.33.92-.42,1.73-.2,1.81S372.69,274.15,373,273.23Z" style="fill: rgb(38, 50, 56); transform-origin: 372.447px 271.658px;" id="elt2jaib47cb" class="animable"></path><path d="M379.2,266.26c-.1-.21-.89-.05-1.78.36a4.63,4.63,0,0,0-1.28.82,5,5,0,0,0-1.31-.68c-.92-.33-1.73-.42-1.81-.2s.6.68,1.52,1a3.19,3.19,0,0,0,1.71.28,4,4,0,0,0,1.53-.45C378.67,267,379.3,266.48,379.2,266.26Z" style="fill: rgb(38, 50, 56); transform-origin: 376.112px 267.014px;" id="elvdboxalt73" class="animable"></path><path d="M362.91,255.56c.23,0,.56.71.73,1.67a4.4,4.4,0,0,1,.05,1.51,4.78,4.78,0,0,1,1.31.69c.8.56,1.34,1.17,1.21,1.36s-.9-.1-1.7-.66a3.26,3.26,0,0,1-1.22-1.25,4.37,4.37,0,0,1-.5-1.5C362.62,256.41,362.67,255.6,362.91,255.56Z" style="fill: rgb(38, 50, 56); transform-origin: 364.459px 258.204px;" id="el3vr1opkxqu" class="animable"></path><path d="M360.41,260.61a3.29,3.29,0,0,1,1.71-.28,4.23,4.23,0,0,1,1.53.45c.89.42,1.52.93,1.42,1.14s-.9.05-1.78-.36a4.63,4.63,0,0,1-1.28-.82,4.73,4.73,0,0,1-1.31.68c-.92.33-1.73.43-1.81.2S359.49,261,360.41,260.61Z" style="fill: rgb(38, 50, 56); transform-origin: 361.982px 261.162px;" id="elqzbrpnfc5ia" class="animable"></path><path d="M367.38,254.44c.21.1.05.9-.36,1.78a4.63,4.63,0,0,1-.82,1.28,4.73,4.73,0,0,1,.68,1.31c.33.92.42,1.73.2,1.81s-.67-.6-1-1.52a3.18,3.18,0,0,1-.28-1.71,4.23,4.23,0,0,1,.45-1.53C366.65,255,367.16,254.34,367.38,254.44Z" style="fill: rgb(38, 50, 56); transform-origin: 366.626px 257.528px;" id="eljv8px6u9cqd" class="animable"></path><path d="M372.4,259.83a1.27,1.27,0,1,0,1.27,1.27H372.4Z" style="fill: rgb(176, 190, 197); transform-origin: 372.4px 261.1px;" id="elg3uitvwhduq" class="animable"></path><g id="elbc4s46r5d4t"><path d="M372.4,259.83a1.27,1.27,0,1,0,1.27,1.27H372.4Z" style="opacity: 0.2; transform-origin: 372.4px 261.1px;" class="animable"></path></g><path d="M364.85,259.61a9.7,9.7,0,0,0-2.53,1.82c-3.21,3.21-3.63,8-.94,10.68s7.48,2.28,10.68-.93a9.48,9.48,0,0,0,1.82-2.53Z" style="fill: rgb(176, 190, 197); transform-origin: 366.744px 266.746px;" id="el9554slmv01e" class="animable"></path><g id="elz14l7gx7fy8"><path d="M364.85,259.61a9.7,9.7,0,0,0-2.53,1.82c-3.21,3.21-3.63,8-.94,10.68s7.48,2.28,10.68-.93a9.48,9.48,0,0,0,1.82-2.53Z" style="opacity: 0.3; transform-origin: 366.744px 266.746px;" class="animable"></path></g><path d="M365.75,260.52l7.23,7.22a5.23,5.23,0,0,0-7.23-7.22Z" style="fill: rgb(176, 190, 197); transform-origin: 369.777px 263.716px;" id="elvhtif1e8mm" class="animable"></path><g id="el3g50i8nz9ss"><path d="M365.75,260.52l7.23,7.22a5.23,5.23,0,0,0-7.23-7.22Z" style="opacity: 0.5; transform-origin: 369.777px 263.716px;" class="animable"></path></g><g id="elchkfgxljbxb"><path d="M364.85,259.61a9.7,9.7,0,0,0-2.53,1.82c-3.21,3.21-3.63,8-.94,10.68l8-8Z" style="opacity: 0.2; transform-origin: 364.494px 265.86px;" class="animable"></path></g><path d="M368.9,253.77a6.53,6.53,0,0,1,2.09,1.39c1.55,1.56,1.24,3.45,0,5.1-.09.11.07.27.15.16,1.16-1.5,1.71-3.3.47-4.93a6.4,6.4,0,0,0-2.63-1.93c-.13-.06-.18.16-.05.21Z" style="fill: rgb(38, 50, 56); transform-origin: 370.584px 257.003px;" id="el8wl3pj6ocli" class="animable"></path><path d="M379.94,264.54a6.3,6.3,0,0,0-1.94-2.62c-1.62-1.24-3.42-.7-4.92.46-.11.09,0,.24.15.16,1.65-1.27,3.55-1.59,5.1,0a6.6,6.6,0,0,1,1.4,2.1c0,.13.26.07.21-.06Z" style="fill: rgb(38, 50, 56); transform-origin: 376.491px 262.962px;" id="elety3hwjxkqg" class="animable"></path><path d="M365.91,264.23a1.3,1.3,0,1,1,0-1.84A1.3,1.3,0,0,1,365.91,264.23Z" style="fill: rgb(176, 190, 197); transform-origin: 364.992px 263.31px;" id="elidls1wg0djq" class="animable"></path><path d="M371.1,269.42a1.29,1.29,0,1,1,0-1.83A1.29,1.29,0,0,1,371.1,269.42Z" style="fill: rgb(176, 190, 197); transform-origin: 370.191px 268.505px;" id="elm9ci8sf42x" class="animable"></path><path d="M363.09,268.29a1.3,1.3,0,1,1,0-1.84A1.3,1.3,0,0,1,363.09,268.29Z" style="fill: rgb(176, 190, 197); transform-origin: 362.172px 267.37px;" id="eld3ctg24oc1b" class="animable"></path><circle cx="366.13" cy="271.32" r="1.3" style="fill: rgb(176, 190, 197); transform-origin: 366.13px 271.32px;" id="eliwoj848x41k" class="animable"></circle><g id="elnfa4cgxtvo"><g style="opacity: 0.7; transform-origin: 366.176px 267.315px;" class="animable"><path d="M365.91,264.23a1.3,1.3,0,1,1,0-1.84A1.3,1.3,0,0,1,365.91,264.23Z" style="fill: rgb(255, 255, 255); transform-origin: 364.992px 263.31px;" id="el03h7b4cou8x4" class="animable"></path><path d="M371.1,269.42a1.29,1.29,0,1,1,0-1.83A1.29,1.29,0,0,1,371.1,269.42Z" style="fill: rgb(255, 255, 255); transform-origin: 370.191px 268.505px;" id="elnql5l4decan" class="animable"></path><path d="M363.09,268.29a1.3,1.3,0,1,1,0-1.84A1.3,1.3,0,0,1,363.09,268.29Z" style="fill: rgb(255, 255, 255); transform-origin: 362.172px 267.37px;" id="elug80gudqhd" class="animable"></path><circle cx="366.13" cy="271.32" r="1.3" style="fill: rgb(255, 255, 255); transform-origin: 366.13px 271.32px;" id="elggeeqd6aa5n" class="animable"></circle></g></g><path d="M297.4,181.4c0-.24-.71-.56-1.67-.73a4.52,4.52,0,0,0-1.52-.06,4.7,4.7,0,0,0-.68-1.31c-.56-.8-1.17-1.34-1.37-1.2s.1.89.66,1.69a3.2,3.2,0,0,0,1.26,1.22,4.09,4.09,0,0,0,1.5.5C296.54,181.68,297.35,181.63,297.4,181.4Z" style="fill: rgb(38, 50, 56); transform-origin: 294.749px 179.844px;" id="eljxhc6s76pb" class="animable"></path><path d="M292.34,183.9a3.23,3.23,0,0,0,.28-1.72,4.14,4.14,0,0,0-.45-1.53c-.41-.88-.92-1.52-1.14-1.42s0,.9.36,1.78a4.63,4.63,0,0,0,.82,1.28,5,5,0,0,0-.68,1.31c-.33.92-.42,1.73-.2,1.81S292,184.81,292.34,183.9Z" style="fill: rgb(38, 50, 56); transform-origin: 291.791px 182.318px;" id="elwg463akjk9" class="animable"></path><path d="M298.52,176.93c-.1-.22-.9-.06-1.79.35a4.71,4.71,0,0,0-1.27.82,4.75,4.75,0,0,0-1.31-.67c-.92-.34-1.73-.43-1.81-.21s.59.68,1.51,1a3.38,3.38,0,0,0,1.72.29,4.41,4.41,0,0,0,1.53-.46C298,177.65,298.62,177.14,298.52,176.93Z" style="fill: rgb(38, 50, 56); transform-origin: 295.432px 177.678px;" id="elwjceaowx01" class="animable"></path><path d="M282.22,166.22c.23,0,.56.71.73,1.67a4.74,4.74,0,0,1,.06,1.51,4.93,4.93,0,0,1,1.31.69c.8.56,1.34,1.17,1.2,1.37s-.89-.11-1.69-.67a3.19,3.19,0,0,1-1.22-1.25,4.13,4.13,0,0,1-.51-1.5C281.93,167.08,282,166.26,282.22,166.22Z" style="fill: rgb(38, 50, 56); transform-origin: 283.774px 168.87px;" id="el7ksrsrrbfrk" class="animable"></path><path d="M279.72,171.28a3.36,3.36,0,0,1,1.72-.29,4.41,4.41,0,0,1,1.53.46c.88.41,1.52.92,1.42,1.13s-.9.06-1.79-.36a4.27,4.27,0,0,1-1.27-.82,4.73,4.73,0,0,1-1.31.68c-.92.34-1.73.43-1.81.2S278.8,171.61,279.72,171.28Z" style="fill: rgb(38, 50, 56); transform-origin: 281.302px 171.824px;" id="elvgo22ak48op" class="animable"></path><path d="M286.69,165.1c.22.1.06.9-.36,1.78a4.41,4.41,0,0,1-.82,1.28,4.73,4.73,0,0,1,.68,1.31c.34.92.43,1.73.2,1.81s-.67-.6-1-1.51a3.27,3.27,0,0,1-.29-1.72,4.2,4.2,0,0,1,.46-1.53C286,165.64,286.48,165,286.69,165.1Z" style="fill: rgb(38, 50, 56); transform-origin: 285.936px 168.188px;" id="elda2yd7ixjbi" class="animable"></path><path d="M291.71,170.49a1.27,1.27,0,1,0,1.27,1.27h-1.27Z" style="fill: rgb(176, 190, 197); transform-origin: 291.71px 171.76px;" id="ele6mw6u9ggja" class="animable"></path><g id="el7yvyjxirlqt"><path d="M291.71,170.49a1.27,1.27,0,1,0,1.27,1.27h-1.27Z" style="opacity: 0.2; transform-origin: 291.71px 171.76px;" class="animable"></path></g><path d="M284.16,170.27a9.75,9.75,0,0,0-2.53,1.83c-3.21,3.2-3.62,8-.93,10.67s7.47,2.28,10.68-.93a9.7,9.7,0,0,0,1.82-2.53Z" style="fill: rgb(176, 190, 197); transform-origin: 286.062px 177.404px;" id="el3pp3a7cm7lx" class="animable"></path><g id="el4h772tcdivf"><path d="M284.16,170.27a9.75,9.75,0,0,0-2.53,1.83c-3.21,3.2-3.62,8-.93,10.67s7.47,2.28,10.68-.93a9.7,9.7,0,0,0,1.82-2.53Z" style="opacity: 0.3; transform-origin: 286.062px 177.404px;" class="animable"></path></g><path d="M285.07,171.18l7.22,7.22a5.23,5.23,0,0,0-7.22-7.22Z" style="fill: rgb(176, 190, 197); transform-origin: 289.089px 174.381px;" id="el1tiy6szywh" class="animable"></path><g id="elo27npmcs16l"><path d="M285.07,171.18l7.22,7.22a5.23,5.23,0,0,0-7.22-7.22Z" style="opacity: 0.5; transform-origin: 289.089px 174.381px;" class="animable"></path></g><g id="elw89w245mikr"><path d="M284.16,170.27a9.75,9.75,0,0,0-2.53,1.83c-3.21,3.2-3.62,8-.93,10.67l8-8Z" style="opacity: 0.2; transform-origin: 283.812px 176.52px;" class="animable"></path></g><path d="M288.21,164.43a6.47,6.47,0,0,1,2.1,1.39c1.55,1.57,1.24,3.46,0,5.11-.08.11.07.26.16.15,1.16-1.5,1.7-3.3.46-4.93a6.36,6.36,0,0,0-2.62-1.93c-.13-.05-.19.16-.06.21Z" style="fill: rgb(38, 50, 56); transform-origin: 289.908px 167.665px;" id="eln6u8x0s81gp" class="animable"></path><path d="M299.25,175.2a6.36,6.36,0,0,0-1.93-2.62c-1.63-1.24-3.43-.7-4.93.46-.11.09.05.24.16.16,1.64-1.27,3.54-1.59,5.1,0a6.42,6.42,0,0,1,1.39,2.09c0,.13.27.07.21-.06Z" style="fill: rgb(38, 50, 56); transform-origin: 295.806px 173.617px;" id="elo85m3jytf8i" class="animable"></path><path d="M285.22,174.89a1.3,1.3,0,0,1-1.83,0,1.29,1.29,0,1,1,1.83,0Z" style="fill: rgb(176, 190, 197); transform-origin: 284.305px 173.979px;" id="elw3w5zjt65dc" class="animable"></path><circle cx="289.5" cy="179.17" r="1.3" style="fill: rgb(176, 190, 197); transform-origin: 289.5px 179.17px;" id="elx4rg0t0w8ae" class="animable"></circle><path d="M282.41,179a1.3,1.3,0,0,1-1.84-1.83,1.3,1.3,0,1,1,1.84,1.83Z" style="fill: rgb(176, 190, 197); transform-origin: 281.546px 178.028px;" id="elxs4hfz4k1me" class="animable"></path><path d="M286.36,182.9a1.3,1.3,0,1,1-1.84-1.83,1.3,1.3,0,0,1,1.84,1.83Z" style="fill: rgb(176, 190, 197); transform-origin: 285.384px 182.042px;" id="elyftgv4ye9d" class="animable"></path><g id="el1vc1152hqai"><g style="opacity: 0.7; transform-origin: 285.523px 178.016px;" class="animable"><path d="M285.22,174.89a1.3,1.3,0,0,1-1.83,0,1.29,1.29,0,1,1,1.83,0Z" style="fill: rgb(255, 255, 255); transform-origin: 284.305px 173.979px;" id="ela2san5d5xs" class="animable"></path><circle cx="289.5" cy="179.17" r="1.3" style="fill: rgb(255, 255, 255); transform-origin: 289.5px 179.17px;" id="elz370l618u1e" class="animable"></circle><path d="M282.41,179a1.3,1.3,0,0,1-1.84-1.83,1.3,1.3,0,1,1,1.84,1.83Z" style="fill: rgb(255, 255, 255); transform-origin: 281.546px 178.028px;" id="el4tiorcyohgb" class="animable"></path><path d="M286.36,182.9a1.3,1.3,0,1,1-1.84-1.83,1.3,1.3,0,0,1,1.84,1.83Z" style="fill: rgb(255, 255, 255); transform-origin: 285.384px 182.042px;" id="eln1olv64fkk8" class="animable"></path></g></g><path d="M195.15,287.15c-.23,0-.56.7-.72,1.67a4.21,4.21,0,0,0-.06,1.51,4.78,4.78,0,0,0-1.31.69c-.8.56-1.34,1.17-1.21,1.36s.9-.1,1.7-.66a3.26,3.26,0,0,0,1.22-1.25,4.44,4.44,0,0,0,.5-1.51C195.44,288,195.39,287.19,195.15,287.15Z" style="fill: rgb(38, 50, 56); transform-origin: 193.601px 289.794px;" id="elahk0ud0cwgf" class="animable"></path><path d="M197.65,292.2a3.18,3.18,0,0,0-1.71-.28,4.23,4.23,0,0,0-1.53.45c-.89.42-1.52.92-1.42,1.14s.9.05,1.78-.36a4.63,4.63,0,0,0,1.28-.82,4.73,4.73,0,0,0,1.31.68c.92.33,1.73.42,1.81.2S198.57,292.54,197.65,292.2Z" style="fill: rgb(38, 50, 56); transform-origin: 196.078px 292.753px;" id="elj4c8up3bb7f" class="animable"></path><path d="M190.68,286c-.21.1-.05.89.36,1.78a4.79,4.79,0,0,0,.82,1.28,5,5,0,0,0-.68,1.31c-.33.92-.42,1.73-.2,1.81s.67-.6,1-1.52a3.22,3.22,0,0,0,.28-1.72,4.25,4.25,0,0,0-.45-1.52C191.41,286.56,190.9,285.93,190.68,286Z" style="fill: rgb(38, 50, 56); transform-origin: 191.434px 289.091px;" id="el8tqy1vtp6yv" class="animable"></path><path d="M180,302.32c0-.23.7-.56,1.67-.73a4.73,4.73,0,0,1,1.51-.06,4.9,4.9,0,0,1,.69-1.3c.56-.81,1.17-1.34,1.36-1.21s-.1.9-.66,1.7a3.26,3.26,0,0,1-1.25,1.22,4.45,4.45,0,0,1-1.5.5C180.83,302.61,180,302.56,180,302.32Z" style="fill: rgb(38, 50, 56); transform-origin: 182.644px 300.77px;" id="elzv3ea883kc9" class="animable"></path><path d="M185,304.82a3.19,3.19,0,0,1-.28-1.71,4.23,4.23,0,0,1,.45-1.53c.42-.89.92-1.52,1.14-1.42s0,.89-.36,1.78a4.79,4.79,0,0,1-.82,1.28,4.73,4.73,0,0,1,.68,1.31c.33.92.42,1.73.2,1.81S185.37,305.74,185,304.82Z" style="fill: rgb(38, 50, 56); transform-origin: 185.549px 303.248px;" id="eln4c1xd8b9ik" class="animable"></path><path d="M178.86,297.85c.1-.21.9-.05,1.78.36a4.63,4.63,0,0,1,1.28.82,4.73,4.73,0,0,1,1.31-.68c.92-.33,1.73-.42,1.81-.2s-.6.67-1.52,1a3.18,3.18,0,0,1-1.71.28,4.23,4.23,0,0,1-1.53-.45C179.39,298.58,178.76,298.07,178.86,297.85Z" style="fill: rgb(38, 50, 56); transform-origin: 181.948px 298.604px;" id="elh7j27jq1nwh" class="animable"></path><path d="M184.25,292.83a1.27,1.27,0,1,0,1.26-1.27v1.27Z" style="fill: rgb(176, 190, 197); transform-origin: 185.52px 292.83px;" id="elxptt4j1myh8" class="animable"></path><g id="el103zp5ltuib"><path d="M184.25,292.83a1.27,1.27,0,1,0,1.26-1.27v1.27Z" style="opacity: 0.2; transform-origin: 185.52px 292.83px;" class="animable"></path></g><path d="M184,300.38a9.7,9.7,0,0,0,1.82,2.53c3.21,3.21,8,3.63,10.68.94s2.27-7.48-.93-10.68a9.48,9.48,0,0,0-2.53-1.82Z" style="fill: rgb(176, 190, 197); transform-origin: 191.134px 298.486px;" id="el5vu272c5sf7" class="animable"></path><g id="elp54xdwmt1t8"><path d="M184,300.38a9.7,9.7,0,0,0,1.82,2.53c3.21,3.21,8,3.63,10.68.94s2.27-7.48-.93-10.68a9.48,9.48,0,0,0-2.53-1.82Z" style="opacity: 0.3; transform-origin: 191.134px 298.486px;" class="animable"></path></g><path d="M184.93,299.48l7.23-7.23a5.24,5.24,0,0,0-7.23,7.23Z" style="fill: rgb(176, 190, 197); transform-origin: 188.139px 295.459px;" id="el7cy20krsqo4" class="animable"></path><g id="elzwy68hrx7h"><path d="M184.93,299.48l7.23-7.23a5.24,5.24,0,0,0-7.23,7.23Z" style="opacity: 0.5; transform-origin: 188.139px 295.459px;" class="animable"></path></g><g id="elzyopbjjzdhp"><path d="M184,300.38a9.7,9.7,0,0,0,1.82,2.53c3.21,3.21,8,3.63,10.68.94l-8-8Z" style="opacity: 0.2; transform-origin: 190.25px 300.736px;" class="animable"></path></g><path d="M178.19,296.33a6.42,6.42,0,0,1,1.39-2.09c1.56-1.55,3.45-1.24,5.1,0,.11.09.27-.07.16-.15-1.5-1.16-3.3-1.71-4.93-.47a6.33,6.33,0,0,0-1.93,2.63c-.06.13.16.18.21.05Z" style="fill: rgb(38, 50, 56); transform-origin: 181.423px 294.646px;" id="ellp8vw39khe" class="animable"></path><path d="M189,285.29a6.3,6.3,0,0,0-2.62,1.94c-1.24,1.62-.7,3.42.46,4.92.09.11.24,0,.16-.15-1.27-1.65-1.59-3.55,0-5.1a6.34,6.34,0,0,1,2.1-1.4c.13-.05.07-.26-.06-.21Z" style="fill: rgb(38, 50, 56); transform-origin: 187.422px 288.739px;" id="elyok868qmtdf" class="animable"></path><circle cx="187.73" cy="300.24" r="1.3" style="fill: rgb(176, 190, 197); transform-origin: 187.73px 300.24px;" id="elf4w438hx30u" class="animable"></circle><circle cx="192.92" cy="295.04" r="1.3" style="fill: rgb(176, 190, 197); transform-origin: 192.92px 295.04px;" id="elkh2v0pr525n" class="animable"></circle><path d="M192.7,302.14a1.29,1.29,0,1,1-1.83,1.83,1.3,1.3,0,0,1,0-1.83A1.29,1.29,0,0,1,192.7,302.14Z" style="fill: rgb(176, 190, 197); transform-origin: 191.786px 303.054px;" id="el9q4bbuwpw9k" class="animable"></path><path d="M196.66,298.19a1.3,1.3,0,1,1-1.84,0A1.3,1.3,0,0,1,196.66,298.19Z" style="fill: rgb(176, 190, 197); transform-origin: 195.74px 299.108px;" id="el93e9ohmbosi" class="animable"></path><g id="elfj71vkero7t"><g style="opacity: 0.7; transform-origin: 191.735px 299.045px;" class="animable"><circle cx="187.73" cy="300.24" r="1.3" style="fill: rgb(255, 255, 255); transform-origin: 187.73px 300.24px;" id="elx0a9wjk604p" class="animable"></circle><circle cx="192.92" cy="295.04" r="1.3" style="fill: rgb(255, 255, 255); transform-origin: 192.92px 295.04px;" id="el9rupv4zm18" class="animable"></circle><path d="M192.7,302.14a1.29,1.29,0,1,1-1.83,1.83,1.3,1.3,0,0,1,0-1.83A1.29,1.29,0,0,1,192.7,302.14Z" style="fill: rgb(255, 255, 255); transform-origin: 191.786px 303.054px;" id="elvi7uzbfe8fp" class="animable"></path><path d="M196.66,298.19a1.3,1.3,0,1,1-1.84,0A1.3,1.3,0,0,1,196.66,298.19Z" style="fill: rgb(255, 255, 255); transform-origin: 195.74px 299.108px;" id="el445gp9tgk3j" class="animable"></path></g></g><path d="M344.35,160c-.39-.07-.93,1.17-1.22,2.78a7.72,7.72,0,0,0-.1,2.52,8.07,8.07,0,0,0-2.18,1.14c-1.33.94-2.23,2-2,2.28s1.49-.17,2.82-1.1a5.37,5.37,0,0,0,2-2.09,7.07,7.07,0,0,0,.84-2.51C344.82,161.43,344.74,160.08,344.35,160Z" style="fill: rgb(38, 50, 56); transform-origin: 341.757px 164.4px;" id="elkd0wrp6jecn" class="animable"></path><path d="M348.51,168.43a5.35,5.35,0,0,0-2.86-.47,7.07,7.07,0,0,0-2.55.76c-1.47.68-2.53,1.53-2.37,1.89s1.5.09,3-.6a7.91,7.91,0,0,0,2.13-1.36,8.28,8.28,0,0,0,2.18,1.13c1.53.55,2.88.7,3,.33S350,169,348.51,168.43Z" style="fill: rgb(38, 50, 56); transform-origin: 345.881px 169.348px;" id="el7in3y6l5p2b" class="animable"></path><path d="M336.89,158.14c-.35.16-.09,1.5.6,3a7.67,7.67,0,0,0,1.37,2.13,8,8,0,0,0-1.13,2.18c-.56,1.53-.71,2.88-.34,3s1.12-1,1.68-2.53a5.34,5.34,0,0,0,.47-2.86,7,7,0,0,0-.75-2.54C338.1,159,337.25,158,336.89,158.14Z" style="fill: rgb(38, 50, 56); transform-origin: 338.154px 163.293px;" id="elfga6agojlhu" class="animable"></path><path d="M319.05,185.3c-.06-.39,1.18-.93,2.78-1.21a7.51,7.51,0,0,1,2.53-.1,8.1,8.1,0,0,1,1.14-2.19c.94-1.33,2-2.23,2.28-2s-.17,1.49-1.11,2.82a5.23,5.23,0,0,1-2.08,2,6.87,6.87,0,0,1-2.51.84C320.48,185.78,319.12,185.69,319.05,185.3Z" style="fill: rgb(38, 50, 56); transform-origin: 323.455px 182.709px;" id="elwttvgbc8gb" class="animable"></path><path d="M327.48,189.46a5.34,5.34,0,0,1-.47-2.86,7,7,0,0,1,.75-2.54c.69-1.48,1.54-2.54,1.9-2.37s.09,1.5-.6,3a7.67,7.67,0,0,1-1.37,2.13,7.66,7.66,0,0,1,1.13,2.19c.56,1.53.71,2.88.34,3S328,191,327.48,189.46Z" style="fill: rgb(38, 50, 56); transform-origin: 328.398px 186.845px;" id="el0kx8vv10qxi" class="animable"></path><path d="M317.18,177.85c.17-.36,1.5-.09,3,.6a7.45,7.45,0,0,1,2.12,1.36,8.23,8.23,0,0,1,2.19-1.13c1.53-.56,2.88-.71,3-.34s-1,1.13-2.53,1.68a5.5,5.5,0,0,1-2.86.48,7.07,7.07,0,0,1-2.55-.76C318.08,179.05,317,178.21,317.18,177.85Z" style="fill: rgb(38, 50, 56); transform-origin: 322.33px 179.109px;" id="el5puig4hcw8a" class="animable"></path><path d="M326.17,169.48a2.11,2.11,0,1,0,2.11-2.11v2.11Z" style="fill: rgb(176, 190, 197); transform-origin: 328.28px 169.48px;" id="elyf6bb1nz18k" class="animable"></path><g id="el3tta01p4s7t"><path d="M326.17,169.48a2.11,2.11,0,1,0,2.11-2.11v2.11Z" style="opacity: 0.2; transform-origin: 328.28px 169.48px;" class="animable"></path></g><path d="M325.81,182.06a16,16,0,0,0,3,4.22c5.35,5.35,13.32,6,17.8,1.56s3.79-12.46-1.55-17.8a16.17,16.17,0,0,0-4.22-3Z" style="fill: rgb(176, 190, 197); transform-origin: 337.688px 178.909px;" id="el92op2a1amkn" class="animable"></path><g id="eljp61s2amj9a"><path d="M325.81,182.06a16,16,0,0,0,3,4.22c5.35,5.35,13.32,6,17.8,1.56s3.79-12.46-1.55-17.8a16.17,16.17,0,0,0-4.22-3Z" style="opacity: 0.3; transform-origin: 337.688px 178.909px;" class="animable"></path></g><path d="M327.31,180.56l12.05-12.05c-3.8-1.87-8.13-1.54-10.86,1.18S325.44,176.75,327.31,180.56Z" style="fill: rgb(176, 190, 197); transform-origin: 332.746px 173.946px;" id="eltlnbif90smc" class="animable"></path><g id="elbvyvkz5aph"><path d="M327.31,180.56l12.05-12.05c-3.8-1.87-8.13-1.54-10.86,1.18S325.44,176.75,327.31,180.56Z" style="opacity: 0.5; transform-origin: 332.746px 173.946px;" class="animable"></path></g><g id="el859nmlmsh15"><path d="M325.81,182.06a16,16,0,0,0,3,4.22c5.35,5.35,13.32,6,17.8,1.56l-13.3-13.31Z" style="opacity: 0.2; transform-origin: 336.21px 182.654px;" class="animable"></path></g><path d="M316.07,175.31a10.93,10.93,0,0,1,2.32-3.49c2.61-2.58,5.76-2.06,8.5.06.19.14.45-.12.26-.26-2.5-1.93-5.5-2.84-8.21-.77a10.6,10.6,0,0,0-3.22,4.37c-.09.22.26.31.35.09Z" style="fill: rgb(38, 50, 56); transform-origin: 321.461px 172.554px;" id="elgerrd7rjbfu" class="animable"></path><path d="M334,156.91a10.6,10.6,0,0,0-4.37,3.23c-2.06,2.7-1.16,5.71.78,8.21.14.19.4-.08.25-.26-2.11-2.74-2.64-5.91-.05-8.5a10.66,10.66,0,0,1,3.49-2.32c.21-.09.12-.45-.1-.36Z" style="fill: rgb(38, 50, 56); transform-origin: 331.337px 162.655px;" id="elbxzj56yyzvh" class="animable"></path><path d="M333.5,180.3a2.16,2.16,0,1,1-3.06,0A2.16,2.16,0,0,1,333.5,180.3Z" style="fill: rgb(176, 190, 197); transform-origin: 331.97px 181.825px;" id="elxdgdk6zxpl" class="animable"></path><path d="M342.16,171.64a2.16,2.16,0,1,1-3.06,0A2.16,2.16,0,0,1,342.16,171.64Z" style="fill: rgb(176, 190, 197); transform-origin: 340.63px 173.165px;" id="elgwdm192z6vj" class="animable"></path><circle cx="338.74" cy="186.52" r="2.16" style="fill: rgb(176, 190, 197); transform-origin: 338.74px 186.52px;" id="el2nhxwcnn54g" class="animable"></circle><path d="M346.85,178.41a2.16,2.16,0,1,1-3.05,0A2.16,2.16,0,0,1,346.85,178.41Z" style="fill: rgb(176, 190, 197); transform-origin: 345.325px 179.94px;" id="elbqat4sqgv0v" class="animable"></path><g id="eljvopp6dcc6a"><g style="opacity: 0.7; transform-origin: 338.648px 179.842px;" class="animable"><path d="M333.5,180.3a2.16,2.16,0,1,1-3.06,0A2.16,2.16,0,0,1,333.5,180.3Z" style="fill: rgb(255, 255, 255); transform-origin: 331.97px 181.825px;" id="el647mojh0gk2" class="animable"></path><path d="M342.16,171.64a2.16,2.16,0,1,1-3.06,0A2.16,2.16,0,0,1,342.16,171.64Z" style="fill: rgb(255, 255, 255); transform-origin: 340.63px 173.165px;" id="elru5wrpot669" class="animable"></path><circle cx="338.74" cy="186.52" r="2.16" style="fill: rgb(255, 255, 255); transform-origin: 338.74px 186.52px;" id="elrs035ykonxk" class="animable"></circle><path d="M346.85,178.41a2.16,2.16,0,1,1-3.05,0A2.16,2.16,0,0,1,346.85,178.41Z" style="fill: rgb(255, 255, 255); transform-origin: 345.325px 179.94px;" id="el7lki4kh642i" class="animable"></path></g></g></g><g id="freepik--character-2--inject-2" class="animable animator-hidden" style="transform-origin: 376.583px 283.22px;"><g id="elwhl0tvv2jzq"><rect x="337.31" y="198.56" width="5.04" height="5.04" class="animable" style="transform-origin: 339.83px 201.08px; transform: rotate(-10deg);"></rect></g><g id="eltii9apqczp"><rect x="337.31" y="198.56" width="5.04" height="5.04" style="fill: rgb(255, 255, 255); opacity: 0.5; transform-origin: 339.83px 201.08px; transform: rotate(-10deg);" class="animable"></rect></g><g id="elv556sir7je"><rect x="338.9" y="201.81" width="7.35" height="29.64" rx="2.92" class="animable" style="transform-origin: 342.575px 216.63px; transform: rotate(-10deg);"></rect></g><g id="elw09lvyu7y4h"><path d="M344.3,155.37c.13.55.25,1.1.35,1.67a29.35,29.35,0,0,1-23.81,34q-.84.15-1.68.24a22.37,22.37,0,1,0,25.14-35.91Z" style="opacity: 0.1; transform-origin: 338.463px 176.816px;" class="animable"></path></g><path d="M330.94,150.69a25.58,25.58,0,1,0,29.64,20.75A25.59,25.59,0,0,0,330.94,150.69Zm8,45.42a20.54,20.54,0,1,1,16.66-23.79A20.54,20.54,0,0,1,339,196.11Z" style="fill: rgb(176, 190, 197); transform-origin: 335.388px 175.881px;" id="elcmrtu2j3kpi" class="animable"></path><path d="M416,204.27c1,1.53,1.82,3,2.68,4.51s1.66,3,2.44,4.58a103.93,103.93,0,0,1,4.28,9.55c.66,1.64,1.22,3.33,1.76,5l.1.33.14.53a10.11,10.11,0,0,1,.19,1.1,8.91,8.91,0,0,1-.05,2.25,9.65,9.65,0,0,1-1.45,3.77,14.37,14.37,0,0,1-4.68,4.36,19.1,19.1,0,0,1-2.54,1.31,20.76,20.76,0,0,1-2.69,1l-1.89-4a34.75,34.75,0,0,0,3.31-3.09,9.46,9.46,0,0,0,2.06-3.09,1.31,1.31,0,0,0,0-1.27l-.07-.13a.25.25,0,0,1,0-.07l-.11-.27q-.89-2.19-1.91-4.38c-1.36-2.93-2.85-5.83-4.41-8.71l-2.37-4.31L408.31,209Z" style="fill: rgb(255, 195, 189); transform-origin: 417.974px 223.415px;" id="el1trguanph8z" class="animable"></path><path d="M416.31,238l-4.4-1.15-.25,7.12s3.44.51,5.55-1.6Z" style="fill: rgb(255, 195, 189); transform-origin: 414.435px 240.437px;" id="elvpiaif4kjs" class="animable"></path><polygon points="405.66 235.65 406.66 241.89 411.65 243.96 411.91 236.84 405.66 235.65" style="fill: rgb(255, 195, 189); transform-origin: 408.785px 239.805px;" id="elv5inlbxy58" class="animable"></polygon><path d="M387.44,175.57c-.1.48-.44.83-.76.76s-.49-.51-.39-1,.43-.83.75-.76S387.54,175.08,387.44,175.57Z" style="fill: rgb(38, 50, 56); transform-origin: 386.865px 175.45px;" id="elc89ynbl7vdg" class="animable"></path><path d="M387.05,176.4a17.75,17.75,0,0,1-3.18,3.7,2.87,2.87,0,0,0,2.24.91Z" style="fill: rgb(237, 132, 126); transform-origin: 385.46px 178.707px;" id="eljcowdjkpjq" class="animable"></path><path d="M389.77,173.22a.31.31,0,0,0,.2-.07.3.3,0,0,0,0-.42,2.89,2.89,0,0,0-2.48-1,.3.3,0,0,0-.24.34.29.29,0,0,0,.34.23h0a2.38,2.38,0,0,1,2,.79A.27.27,0,0,0,389.77,173.22Z" style="fill: rgb(38, 50, 56); transform-origin: 388.651px 172.468px;" id="el21e5n72bl4wi" class="animable"></path><path d="M401.31,182.42c-.88,4.5-1.77,12.76,1.39,15.77,0,0-1.24,4.57-9.61,4.57-9.21,0-4.4-4.57-4.4-4.57,5-1.2,4.9-4.93,4-8.43Z" style="fill: rgb(255, 195, 189); transform-origin: 395.067px 192.59px;" id="elpd67nf265do" class="animable"></path><path d="M404.51,199c.68-1.25,1.42-2.68-.12-3.13s-12.52-1.41-15.7-.48c1,1.74-.68,3.88-.68,3.88Z" style="fill: rgb(176, 190, 197); transform-origin: 396.654px 197.134px;" id="elr69fg6ggfo" class="animable"></path><g id="elytfracuesbd"><path d="M404.51,199c.68-1.25,1.42-2.68-.12-3.13s-12.52-1.41-15.7-.48c1,1.74-.68,3.88-.68,3.88Z" style="opacity: 0.3; transform-origin: 396.654px 197.134px;" class="animable"></path></g><polygon points="394.95 409.85 388.79 409.85 388.17 395.58 394.33 395.58 394.95 409.85" style="fill: rgb(255, 195, 189); transform-origin: 391.56px 402.715px;" id="elxtstg53flvr" class="animable"></polygon><polygon points="440.16 407 434.14 408.3 428.1 395.01 434.12 393.71 440.16 407" style="fill: rgb(255, 195, 189); transform-origin: 434.13px 401.005px;" id="elbcgzjkbeegd" class="animable"></polygon><path d="M433.56,407.7l6.77-1.47a.54.54,0,0,1,.6.3l2.35,5.1a.91.91,0,0,1-.65,1.26c-2.37.47-3.55.58-6.53,1.22-1.83.4-6,1.41-8.48,1.95s-3.4-1.88-2.42-2.33c4.42-2,6.27-3.79,7.47-5.45A1.46,1.46,0,0,1,433.56,407.7Z" style="fill: rgb(38, 50, 56); transform-origin: 434.086px 411.178px;" id="elqnwoqxeiki" class="animable"></path><path d="M388.83,409.14h6.72a.54.54,0,0,1,.53.42L397.3,415a.9.9,0,0,1-.89,1.1c-2.43,0-5.93-.18-9-.18-3.57,0-6.65.19-10.83.19-2.53,0-3.24-2.56-2.18-2.79,4.82-1.05,8.76-1.17,12.92-3.73A2.86,2.86,0,0,1,388.83,409.14Z" style="fill: rgb(38, 50, 56); transform-origin: 385.624px 412.625px;" id="eldtuifh6vl5" class="animable"></path><path d="M413.73,199.58c5.77,1.32,10.53,16.06,10.53,16.06l-11.59,8.84a25.24,25.24,0,0,1-6.15-11.38C404.53,205.37,407.82,198.23,413.73,199.58Z" style="fill: rgb(176, 190, 197); transform-origin: 415.099px 211.947px;" id="el1arpbyoi70c" class="animable"></path><g id="eluef4hglj7ce"><path d="M408.78,210.42c3.14,3.1,4.16,8.75,4.4,13.67l-.51.39a25.31,25.31,0,0,1-6.16-11.38q-.17-.71-.3-1.38Z" style="opacity: 0.2; transform-origin: 409.695px 217.45px;" class="animable"></path></g><path d="M379.21,199.9s-6.55,7.4-.36,53.25H411.8c.23-5.06-2.95-29.74,1.93-53.57a86.4,86.4,0,0,0-11-1.39,119,119,0,0,0-14,0A61.19,61.19,0,0,0,379.21,199.9Z" style="fill: rgb(176, 190, 197); transform-origin: 394.96px 225.567px;" id="eliqy5noc0u3" class="animable"></path><g id="elf099cpd4mia"><path d="M376.33,213.91l.13-.11,7.49,1.79c.43,5.07-4.78,11.12-7.47,13.89A146,146,0,0,1,376.33,213.91Z" style="opacity: 0.2; transform-origin: 380.083px 221.64px;" class="animable"></path></g><g id="elok1x3hhmjr"><polygon points="388.17 395.59 388.49 402.94 394.65 402.94 394.34 395.59 388.17 395.59" style="opacity: 0.2; transform-origin: 391.41px 399.265px;" class="animable"></polygon></g><g id="elrer1yurb2z"><polygon points="434.12 393.71 428.1 395.02 431.22 401.87 437.24 400.56 434.12 393.71" style="opacity: 0.2; transform-origin: 432.67px 397.79px;" class="animable"></polygon></g><path d="M403.89,177.84c-1.58,5.9-2.21,9.44-5.85,11.89-5.49,3.7-12.31-.54-12.53-6.8-.19-5.64,2.43-14.35,8.77-15.54A8.35,8.35,0,0,1,403.89,177.84Z" style="fill: rgb(255, 195, 189); transform-origin: 394.849px 179.176px;" id="elq3urz9ru9pc" class="animable"></path><path d="M390.54,253.15s7,47.08,10.83,64.71c4.2,19.32,26.74,83.22,26.74,83.22l11-2.39s-15.76-52.07-19.29-79.08c-1.16-8.87-2.8-17.31-4.3-29.79-.55-4.62-.09-14.1-.57-18.18-.51-4.29-2-8.12-2.32-11.17l-.86-7.32Z" style="fill: rgb(176, 190, 197); transform-origin: 414.825px 327.115px;" id="elqfuj3kdaseb" class="animable"></path><path d="M425.47,397.4c-.05,0,2,4,2,4l12.41-2.69L438.88,395Z" style="fill: rgb(176, 190, 197); transform-origin: 432.675px 398.2px;" id="el3l5flssterj" class="animable"></path><g id="eljow3u8cjbj"><path d="M425.47,397.4c-.05,0,2,4,2,4l12.41-2.69L438.88,395Z" style="opacity: 0.3; transform-origin: 432.675px 398.2px;" class="animable"></path></g><g id="eln3pc5wjzw9"><path d="M395,269.92c8.08,1.59,7.23,31.73,6.25,47.24-2.33-11-5.74-32.05-8.07-47A2.77,2.77,0,0,1,395,269.92Z" style="opacity: 0.3; transform-origin: 397.521px 293.511px;" class="animable"></path></g><path d="M378.85,253.15s-.85,46.06-.18,64.84c.7,19.54,7.52,83.53,7.52,83.53h10.44s.38-62.84.85-82c.5-20.93,3-66.34,3-66.34Z" style="fill: rgb(176, 190, 197); transform-origin: 389.446px 327.335px;" id="elb480hwncus6" class="animable"></path><path d="M384.18,397.36s.59,4.33.59,4.33h12.7l.34-3.86Z" style="fill: rgb(176, 190, 197); transform-origin: 390.995px 399.525px;" id="elejqc29d48bb" class="animable"></path><g id="elza39aiafds9"><path d="M384.18,397.36s.59,4.33.59,4.33h12.7l.34-3.86Z" style="opacity: 0.3; transform-origin: 390.995px 399.525px;" class="animable"></path></g><path d="M376.32,205.6c-.95,1.49-2,3.14-3.11,4.68s-2.21,3.08-3.36,4.57-2.33,3-3.57,4.33c-.59.71-1.24,1.34-1.86,2s-1.28,1.28-1.94,1.85l-1,.88-1,.79-.41.33a4.61,4.61,0,0,1-1.06-.33,15.88,15.88,0,0,1-2.14-1.12,72.34,72.34,0,0,1-8.84-6.92l-3.47,2.8a42.86,42.86,0,0,0,8.08,9.79,19.69,19.69,0,0,0,2.87,2.1,11,11,0,0,0,4.18,1.55,7.27,7.27,0,0,0,3.14-.27,6.79,6.79,0,0,0,1.59-.73l.71-.47c.47-.31,1-.62,1.42-.95l1.32-1a61.14,61.14,0,0,0,9-9.05c1.3-1.63,2.58-3.26,3.76-5s2.31-3.37,3.42-5.29Zm-15.88,19.46a1,1,0,0,1-.3,0l.1,0C360.43,225,360.51,225,360.44,225.06Z" style="fill: rgb(255, 195, 189); transform-origin: 364.305px 219.282px;" id="elb67sw9qcjr" class="animable"></path><path d="M388.28,209.22c2,8.26-13,16.34-13,16.34l-9.7-11.37a80.6,80.6,0,0,1,9.91-12C382.3,195.7,386.78,202.93,388.28,209.22Z" style="fill: rgb(176, 190, 197); transform-origin: 377.022px 212.602px;" id="elc62ubviqm3b" class="animable"></path><path d="M345.42,220.44l-5.58-5.3,5.36-4.09s4.42,3.17,3.32,7.51Z" style="fill: rgb(255, 195, 189); transform-origin: 344.268px 215.745px;" id="elx6rnthh0i5d" class="animable"></path><polygon points="338.08 213.06 341.82 208.85 345.2 211.06 339.84 215.13 338.08 213.06" style="fill: rgb(255, 195, 189); transform-origin: 341.64px 211.99px;" id="elo53vt9q6v6k" class="animable"></polygon><path d="M391.3,176.4s-3.33-3.84-2.83-7.47c0,0-3.1-5.2-.2-7S393,164,393,164s1.87-4.07,4.56-3.57,2,4.07,2,4.07,3.6-3.14,5.85-2.17.93,4.48.93,4.48,3.68-.7,4.53,1.59a3.2,3.2,0,0,1-1.35,3.68s3.31,1.23,3.41,4.32-3.46,2.77-3.46,2.77-.61,4.6-7.68,8.51a1.88,1.88,0,0,1-1.47.16,5.25,5.25,0,0,0-2.79-.07,1.9,1.9,0,0,1-2-.72,31.56,31.56,0,0,1-2.92-4.37A42.72,42.72,0,0,1,391.3,176.4Z" style="fill: rgb(38, 50, 56); transform-origin: 399.982px 174.155px;" id="elm9qa2xzfck" class="animable"></path><g id="elwigf94uhy5p"><path d="M406.42,180c-2.19,3.93-4.88-2.45-4.88-2.45-2,5.12-5.75-1.8-5.75-1.8-.94,3.62-4.49.65-4.49.65a42.72,42.72,0,0,0,1.37,6.28,30.68,30.68,0,0,0,2.92,4.37,1.9,1.9,0,0,0,2,.72,5.25,5.25,0,0,1,2.79.07,1.88,1.88,0,0,0,1.47-.16c7.07-3.91,7.68-8.51,7.68-8.51C408.54,182.29,406.42,180,406.42,180Z" style="fill: rgb(255, 255, 255); opacity: 0.3; transform-origin: 400.415px 181.836px;" class="animable"></path></g><path d="M384.29,177.91a1.24,1.24,0,0,1-.27,0,1.06,1.06,0,0,1-.67-.59c-.58-1.33,1-4.59,1.17-5l.18-.37,6.8,4.12-.39.65L386.63,174c-.2.85-.81,3.15-1.79,3.74A1,1,0,0,1,384.29,177.91ZM385,173c-.6,1.3-1.29,3.26-1,3.95a.24.24,0,0,0,.18.17.23.23,0,0,0,.23,0c.65-.39,1.26-2.35,1.5-3.51Z" style="fill: rgb(176, 190, 197); transform-origin: 387.361px 174.934px;" id="elo62xscr6b5i" class="animable"></path><path d="M393.84,178.08a6.88,6.88,0,0,1-2.49,3.68c-1.6,1.19-2.8,0-2.68-1.8.1-1.63,1.06-4.22,2.83-4.7S394.3,176.31,393.84,178.08Z" style="fill: rgb(255, 195, 189); transform-origin: 391.306px 178.705px;" id="el5pgw0o3i2is" class="animable"></path></g><g id="freepik--character-1--inject-2" class="animable" style="transform-origin: 138.365px 338.706px;"><path d="M204.89,372.68H156.42a5.94,5.94,0,0,1-5.55-3.79l-18.74-48.2a9,9,0,0,0-11.7-5.15s-49.29-1.81-53.94,0L62.8,317,87.11,379.5a9.7,9.7,0,0,0,9,6.17H213.93v-3.95A9,9,0,0,0,204.89,372.68Z" style="fill: rgb(176, 190, 197); transform-origin: 138.365px 350.203px;" id="el1dg6sg5v239" class="animable"></path><g id="ely9a2onl95d"><path d="M204.89,372.68H156.42a5.94,5.94,0,0,1-5.55-3.79l-18.74-48.2a9,9,0,0,0-11.7-5.15s-49.29-1.81-53.94,0L62.8,317,87.11,379.5a9.7,9.7,0,0,0,9,6.17H213.93v-3.95A9,9,0,0,0,204.89,372.68Z" style="fill: rgb(255, 255, 255); opacity: 0.3; transform-origin: 138.365px 350.203px;" class="animable"></path></g><g id="elc1jrv9xtlx9"><path d="M96.93,368.89l-18.74-48.2a9,9,0,0,0-11.7-5.15L62.8,317,87.11,379.5a9.7,9.7,0,0,0,9,6.17H160v-3.95a9,9,0,0,0-9-9H102.48A5.94,5.94,0,0,1,96.93,368.89Z" style="opacity: 0.2; transform-origin: 111.4px 350.292px;" class="animable"></path></g><polygon points="205.41 391 139.65 391 132.77 415.9 136.63 415.9 144.06 400.12 201.01 400.12 208.44 415.9 212.3 415.9 205.41 391" style="fill: rgb(38, 50, 56); transform-origin: 172.535px 403.45px;" id="elj2j0qskk03" class="animable"></polygon><g id="ely76oonom1h"><polygon points="205.41 391 139.65 391 132.77 415.9 136.63 415.9 144.06 400.12 201.01 400.12 208.44 415.9 212.3 415.9 205.41 391" style="fill: rgb(255, 255, 255); opacity: 0.2; transform-origin: 172.535px 403.45px;" class="animable"></polygon></g><polygon points="202.29 391 136.53 391 129.64 415.9 133.51 415.9 140.94 400.12 197.88 400.12 205.32 415.9 209.18 415.9 202.29 391" style="fill: rgb(38, 50, 56); transform-origin: 169.41px 403.45px;" id="eldaw9g62c28a" class="animable"></polygon><g id="el3j95yaotis6"><polygon points="202.29 391 136.53 391 129.64 415.9 133.51 415.9 140.94 400.12 197.88 400.12 205.32 415.9 209.18 415.9 202.29 391" style="fill: rgb(255, 255, 255); opacity: 0.3; transform-origin: 169.41px 403.45px;" class="animable"></polygon></g><polygon points="158.58 391 92.82 391 85.93 415.9 89.8 415.9 97.23 400.12 154.17 400.12 161.6 415.9 165.47 415.9 158.58 391" style="fill: rgb(38, 50, 56); transform-origin: 125.7px 403.45px;" id="elrndra3y4d" class="animable"></polygon><g id="elik4ihoytmz"><polygon points="158.58 391 92.82 391 85.93 415.9 89.8 415.9 97.23 400.12 154.17 400.12 161.6 415.9 165.47 415.9 158.58 391" style="fill: rgb(255, 255, 255); opacity: 0.2; transform-origin: 125.7px 403.45px;" class="animable"></polygon></g><polygon points="155.46 391 89.7 391 82.81 415.9 86.67 415.9 94.11 400.12 151.05 400.12 158.48 415.9 162.35 415.9 155.46 391" style="fill: rgb(38, 50, 56); transform-origin: 122.58px 403.45px;" id="elojry823woe" class="animable"></polygon><g id="eldsb94wkqgod"><polygon points="155.46 391 89.7 391 82.81 415.9 86.67 415.9 94.11 400.12 151.05 400.12 158.48 415.9 162.35 415.9 155.46 391" style="fill: rgb(255, 255, 255); opacity: 0.4; transform-origin: 122.58px 403.45px;" class="animable"></polygon></g><rect x="93.8" y="385.67" width="60.18" height="5.32" style="fill: rgb(38, 50, 56); transform-origin: 123.89px 388.33px;" id="elssqef7zjmnc" class="animable"></rect><g id="el8pcfjgro35x"><rect x="93.8" y="385.67" width="60.18" height="5.32" style="fill: rgb(255, 255, 255); opacity: 0.2; transform-origin: 123.89px 388.33px;" class="animable"></rect></g><rect x="153.98" y="385.67" width="47.18" height="5.32" style="fill: rgb(38, 50, 56); transform-origin: 177.57px 388.33px;" id="elc1mqs3frwz" class="animable"></rect><g id="elpe66fybva5o"><rect x="153.98" y="385.67" width="47.18" height="5.32" style="fill: rgb(255, 255, 255); opacity: 0.1; transform-origin: 177.57px 388.33px;" class="animable"></rect></g><polygon points="163.68 365.25 175.2 369.94 173.9 374.81 161.6 372.27 163.68 365.25" style="fill: rgb(206, 122, 99); transform-origin: 168.4px 370.03px;" id="eldisyh5qs066" class="animable"></polygon><path d="M124.35,348.63s55.13-19.1,59.67-1.55S146.79,376.73,124.9,376,124.35,348.63,124.35,348.63Z" style="fill: rgb(38, 50, 56); transform-origin: 149.694px 357.847px;" id="elxflfz2y28m" class="animable"></path><g id="eldgh9xx2vnsj"><path d="M124.35,348.63s55.13-19.1,59.67-1.55S146.79,376.73,124.9,376,124.35,348.63,124.35,348.63Z" style="opacity: 0.3; transform-origin: 149.694px 357.847px;" class="animable"></path></g><g id="elespruv108sp"><path d="M165.33,350.41l-26.75,17,4.27,7s-2.58.86-6.16-7.7l16.55-10.94s-5.18-.52-5.05-1.33c.22-1.33,11.6-3.86,16.79-5A.48.48,0,0,1,165.33,350.41Z" style="opacity: 0.7; transform-origin: 151.18px 361.922px;" class="animable"></path></g><g id="ellseniw4ijct"><path d="M137.61,366.7l4.64,7.87A88.46,88.46,0,0,1,124.9,376a15.81,15.81,0,0,1-5.59-1.06l-1.63-3.12,3.51-7.39Z" style="opacity: 0.7; transform-origin: 129.965px 370.221px;" class="animable"></path></g><polygon points="138.08 367.91 132.87 372.28 135.27 375.99 143.19 374.75 138.08 367.91" style="fill: rgb(206, 122, 99); transform-origin: 138.03px 371.95px;" id="elh4wkusl3fik" class="animable"></polygon><polygon points="144.59 374.88 139.14 366.31 136.69 368.06 141.4 375.46 144.59 374.88" style="fill: rgb(176, 190, 197); transform-origin: 140.64px 370.885px;" id="elkd095bhwinb" class="animable"></polygon><path d="M105,366.89c-3-5-8.68-20.15,5.08-22.79S169,366.89,169,366.89l-2.1,6.62-42.79-7.06s11.9,10.76-1.12,9.43C112.66,374.81,107.86,371.78,105,366.89Z" style="fill: rgb(38, 50, 56); transform-origin: 135.127px 359.951px;" id="el5y3pb9gv42w" class="animable"></path><polygon points="167.88 365.25 165.21 373.89 167.88 374.26 170.29 366.8 167.88 365.25" style="fill: rgb(176, 190, 197); transform-origin: 167.75px 369.755px;" id="elkpaxv4d3me" class="animable"></polygon><path d="M132.55,371.13l4.12,4.89a.51.51,0,0,1,0,.65l-3.24,4.24a.86.86,0,0,1-1.2.16.49.49,0,0,1-.13-.12c-1.46-1.79-2.68-3.44-4.53-5.64-2.19-2.59-1.94-1.67-4.55-4.69-1.57-1.81.23-3.91,1-3.21,3.45,3.18,4.84,2.65,7.27,2.95A2,2,0,0,1,132.55,371.13Z" style="fill: rgb(176, 190, 197); transform-origin: 129.592px 374.258px;" id="el04ai0nr1mtzr" class="animable"></path><g id="elm2gzppert1"><path d="M132.55,371.13l4.12,4.89a.51.51,0,0,1,0,.65l-3.24,4.24a.86.86,0,0,1-1.2.16.49.49,0,0,1-.13-.12c-1.46-1.79-2.68-3.44-4.53-5.64-2.19-2.59-1.94-1.67-4.55-4.69-1.57-1.81.23-3.91,1-3.21,3.45,3.18,4.84,2.65,7.27,2.95A2,2,0,0,1,132.55,371.13Z" style="opacity: 0.3; transform-origin: 129.592px 374.258px;" class="animable"></path></g><path d="M174.27,369.32l-2,6.09a.51.51,0,0,0,.22.61l4.59,2.73a.85.85,0,0,0,1.18-.29.8.8,0,0,0,.08-.16c.69-2.21,1.21-4.2,2.12-6.94,1.06-3.22,1.18-2.28,2.48-6.05.79-2.28-1.67-3.55-2.12-2.63-2,4.26-3.51,4.27-5.66,5.46A2,2,0,0,0,174.27,369.32Z" style="fill: rgb(176, 190, 197); transform-origin: 177.668px 370.628px;" id="elz3jv1razhu" class="animable"></path><g id="elkkzxqbq6dr"><path d="M174.27,369.32l-2,6.09a.51.51,0,0,0,.22.61l4.59,2.73a.85.85,0,0,0,1.18-.29.8.8,0,0,0,.08-.16c.69-2.21,1.21-4.2,2.12-6.94,1.06-3.22,1.18-2.28,2.48-6.05.79-2.28-1.67-3.55-2.12-2.63-2,4.26-3.51,4.27-5.66,5.46A2,2,0,0,0,174.27,369.32Z" style="opacity: 0.3; transform-origin: 177.668px 370.628px;" class="animable"></path></g><path d="M141.5,311.92s3.64,17.9,6.09,20.87,13.13,10.95,13.13,10.95l6.35-1.33,4.55,3.8-3,2.35-3.52-1.33a32.82,32.82,0,0,1-5.82.51c-3.28,0-16.61-7.84-19.25-12.25s-6.34-21-6.34-21Z" style="fill: rgb(206, 122, 99); transform-origin: 152.655px 330.24px;" id="el8x8jfedkox8" class="animable"></path><path d="M133.61,317.16s-4.61-14,1.47-18.69,8.93,16.1,8.93,16.1Z" style="fill: rgb(176, 190, 197); transform-origin: 137.973px 307.471px;" id="el132nm1o7s16" class="animable"></path><polygon points="132.37 315.96 133.3 318.36 144.94 315.36 144.48 312.97 132.37 315.96" style="fill: rgb(176, 190, 197); transform-origin: 138.655px 315.665px;" id="elv49hx8d0hp" class="animable"></polygon><path d="M102,350.84s-7.51-22.76,2.46-52.37c0,0,12.94-6,31.4-1.6a3.88,3.88,0,0,1,2.86,4.75c-1.85,7.18-4.7,24.3,2.19,45.94A299,299,0,0,1,102,350.84Z" style="fill: rgb(176, 190, 197); transform-origin: 120.099px 323.049px;" id="eld37f2xmiwfq" class="animable"></path><g id="elczj0dcq64d"><path d="M102,350.84s-7.51-22.76,2.46-52.37c0,0,12.94-6,31.4-1.6a3.88,3.88,0,0,1,2.86,4.75c-1.85,7.18-4.7,24.3,2.19,45.94A299,299,0,0,1,102,350.84Z" style="fill: rgb(255, 255, 255); opacity: 0.8; transform-origin: 120.099px 323.049px;" class="animable"></path></g><path d="M123.05,299.71s2.34,2.58,4.38,0l1.12-.17s-.08,2.75-1.58,3.67a318.53,318.53,0,0,1,5.14,33.33l-2,1.43-2.49-1.43s.62-8.67-2.13-33.12a6.5,6.5,0,0,1-3.94-3.88Z" style="fill: rgb(38, 50, 56); transform-origin: 126.83px 318.755px;" id="el7zot62agnr3" class="animable"></path><path d="M119.2,295.38l6.25,5.42,3.63-3.22c-1.38-1-1-3.32-.23-5.81l-8.87-7C120.43,288.06,120.77,292.56,119.2,295.38Z" style="fill: rgb(206, 122, 99); transform-origin: 124.14px 292.785px;" id="elqk7thylnv3k" class="animable"></path><path d="M111.17,307.4s4,19.62,6.67,22.87,14.4,12,14.4,12l7-1.46,5,4.16-3.26,2.58-3.86-1.45a36.49,36.49,0,0,1-6.38.55c-3.6,0-18.21-8.6-21.1-13.42s-7-23-7-23Z" style="fill: rgb(206, 122, 99); transform-origin: 123.44px 327.475px;" id="elq70ih9g2ro" class="animable"></path><path d="M116.89,295.52l2.48-1.44,6.08,6.72s-3.34-1.37-4.28-.82-.26,2.65-1.24,2.67C117.75,302.69,116.89,295.52,116.89,295.52Z" style="fill: rgb(176, 190, 197); transform-origin: 121.17px 298.365px;" id="elnzlpvyup1bm" class="animable"></path><path d="M125.45,300.8l3.16-6.26,2.59,1.4s2.41,6.07.57,6.71c-1.12.39-1.55-2.45-2.66-2.86C128.22,299.46,125.45,300.8,125.45,300.8Z" style="fill: rgb(176, 190, 197); transform-origin: 128.956px 298.613px;" id="elxkmgvn62h8" class="animable"></path><path d="M103,317.16s-4.62-14,1.46-18.69,8.93,16.1,8.93,16.1Z" style="fill: rgb(176, 190, 197); transform-origin: 107.355px 307.471px;" id="elpsa5opu93ih" class="animable"></path><polygon points="101.77 315.96 102.7 318.36 114.34 315.36 113.88 312.97 101.77 315.96" style="fill: rgb(176, 190, 197); transform-origin: 108.055px 315.665px;" id="elatl9oxdkanl" class="animable"></polygon><g id="elzhh2xdcnbll"><path d="M120.13,285.93c0-.4-.1-.79-.15-1.16l8.87,7a14.78,14.78,0,0,0-.66,3C122.84,294.82,120.81,288.9,120.13,285.93Z" style="opacity: 0.1; transform-origin: 124.415px 289.77px;" class="animable"></path></g><path d="M121.65,274.56c-1.84,6.25-2.76,8.88-.81,13.09,2.93,6.41,11,7.31,14.69,1.74,3.28-5,5.8-14.39.67-19a8.9,8.9,0,0,0-14.55,4.18Z" style="fill: rgb(206, 122, 99); transform-origin: 129.44px 280.573px;" id="elrfjheo0ckja" class="animable"></path><path d="M129.16,281.91c-.18.5-.06,1,.26,1.12s.74-.19.92-.69.06-1-.26-1.11S129.34,281.41,129.16,281.91Z" style="fill: rgb(38, 50, 56); transform-origin: 129.75px 282.131px;" id="elmh2nrs6y4sf" class="animable"></path><path d="M134.79,284c-.19.49-.06,1,.26,1.11s.73-.19.92-.69.06-1-.26-1.11S135,283.46,134.79,284Z" style="fill: rgb(38, 50, 56); transform-origin: 135.38px 284.209px;" id="elezoe3rdtrpr" class="animable"></path><path d="M132.27,283.15a14.58,14.58,0,0,0,.61,3.82,2.27,2.27,0,0,1-1.89-.31Z" style="fill: rgb(186, 77, 60); transform-origin: 131.935px 285.102px;" id="elgmgzwmrqysm" class="animable"></path><path d="M128.5,277.51a.32.32,0,0,0,.33.16,3.75,3.75,0,0,1,2.75,1.13.31.31,0,0,0,.45-.43,4.42,4.42,0,0,0-3.29-1.32.31.31,0,0,0-.26.35A.2.2,0,0,0,128.5,277.51Z" style="fill: rgb(38, 50, 56); transform-origin: 130.297px 277.972px;" id="ellptvxfk6ac" class="animable"></path><path d="M137.94,281.54a.3.3,0,0,0,.31-.06.3.3,0,0,0,0-.43,3.07,3.07,0,0,0-2.61-1.16.31.31,0,0,0-.27.35.31.31,0,0,0,.35.27,2.5,2.5,0,0,1,2.05.94A.42.42,0,0,0,137.94,281.54Z" style="fill: rgb(38, 50, 56); transform-origin: 136.854px 280.721px;" id="elpc91qdnhyn" class="animable"></path><path d="M120.44,278.21a2.16,2.16,0,0,0,2-2.74s3.88-.1,4-3c0,0,3.38,3,4.58.66,0,0,4.16,3.71,4.7,1.26,0,0,4.32,5.35,4.1,2.07,0,0,4.86-.49.49-4.7,0,0,4-3.49-2.46-4.91,0,0,.57-4.15-4-2.32,0,0-1.05-4.51-5-1.89,0,0-2.12-3.16-4.45,1.1,0,0-3.42-2-4.52,2.46,0,0-6.2.75-3.64,4.83,0,0,1.91,13.69,3.64,13.69C121.16,284.77,120.44,278.21,120.44,278.21Z" style="fill: rgb(38, 50, 56); transform-origin: 128.877px 273.116px;" id="elspz664tbur" class="animable"></path><path d="M129.24,288.62a3.8,3.8,0,0,0,.67.14.15.15,0,0,0,.16-.11h0a.15.15,0,0,0-.13-.15,3.68,3.68,0,0,1-2.8-1.81.14.14,0,0,0-.18-.06.12.12,0,0,0-.06.18A3.76,3.76,0,0,0,129.24,288.62Z" style="fill: rgb(38, 50, 56); transform-origin: 128.475px 287.689px;" id="elo576ar5bam" class="animable"></path><path d="M170.51,349.8H145.7a2.1,2.1,0,0,1-2.11-2.11h29A2.1,2.1,0,0,1,170.51,349.8Z" style="fill: rgb(38, 50, 56); transform-origin: 158.09px 348.745px;" id="elw4ld4mohga" class="animable"></path><g id="elkwav15ottbi"><path d="M170.51,349.8H145.7a2.1,2.1,0,0,1-2.11-2.11h29A2.1,2.1,0,0,1,170.51,349.8Z" style="fill: rgb(255, 255, 255); opacity: 0.2; transform-origin: 158.09px 348.745px;" class="animable"></path></g><path d="M152.25,349.8h-18a2.11,2.11,0,0,1-2.12-2.11h22.26A2.11,2.11,0,0,1,152.25,349.8Z" style="fill: rgb(38, 50, 56); transform-origin: 143.26px 348.745px;" id="elhbem24vxxed" class="animable"></path><g id="elljz5cy2lfvs"><path d="M152.25,349.8h-18a2.11,2.11,0,0,1-2.12-2.11h22.26A2.11,2.11,0,0,1,152.25,349.8Z" style="fill: rgb(255, 255, 255); opacity: 0.5; transform-origin: 143.26px 348.745px;" class="animable"></path></g><path d="M170.68,349.16H154.36a.51.51,0,0,1-.48-.67l7.27-20.74a1.42,1.42,0,0,1,1.34-1h16.33a.5.5,0,0,1,.47.67L172,348.2A1.43,1.43,0,0,1,170.68,349.16Z" style="fill: rgb(38, 50, 56); transform-origin: 166.587px 337.955px;" id="elgkcat37xv3" class="animable"></path><g id="elrkl54hoj79k"><path d="M170.68,349.16H154.36a.51.51,0,0,1-.48-.67l7.27-20.74a1.42,1.42,0,0,1,1.34-1h16.33a.5.5,0,0,1,.47.67L172,348.2A1.43,1.43,0,0,1,170.68,349.16Z" style="fill: rgb(255, 255, 255); opacity: 0.5; transform-origin: 166.587px 337.955px;" class="animable"></path></g><path d="M171.32,349.16H155a.51.51,0,0,1-.48-.67l7.26-20.74a1.42,1.42,0,0,1,1.35-1h16.33a.5.5,0,0,1,.47.67l-7.26,20.74A1.43,1.43,0,0,1,171.32,349.16Z" style="fill: rgb(38, 50, 56); transform-origin: 167.227px 337.955px;" id="el9iypwrneif" class="animable"></path><g id="elzvsg528na6f"><path d="M171.32,349.16H155a.51.51,0,0,1-.48-.67l7.26-20.74a1.42,1.42,0,0,1,1.35-1h16.33a.5.5,0,0,1,.47.67l-7.26,20.74A1.43,1.43,0,0,1,171.32,349.16Z" style="fill: rgb(255, 255, 255); opacity: 0.7; transform-origin: 167.227px 337.955px;" class="animable"></path></g><path d="M168.61,338c-.17.8-.72,1.44-1.23,1.44s-.78-.64-.62-1.44.72-1.43,1.23-1.43S168.78,337.18,168.61,338Z" style="fill: rgb(255, 255, 255); transform-origin: 167.687px 338.005px;" id="ellwhlscnflb" class="animable"></path><g id="ellxgos3o57ag"><path d="M121.64,273.17a2.34,2.34,0,0,1-2.13,0c-.87-.63.24-2.38.24-2.38-2.21,1.29-3.41.29-3.41.29s1.91,13.69,3.64,13.69c1.18,0,.46-6.56.46-6.56a2.16,2.16,0,0,0,2-2.74C120.35,275.07,121.64,273.17,121.64,273.17Z" style="fill: rgb(255, 255, 255); opacity: 0.3; transform-origin: 119.43px 277.78px;" class="animable"></path></g><path d="M138.32,282.23a2.23,2.23,0,0,0-1.35-1.48,2.8,2.8,0,0,0-3.31,1.84l-1.2-.49a3.16,3.16,0,0,0-.16-1.85,2.73,2.73,0,0,0-1.6-1.56,2.93,2.93,0,0,0-3.45,1.3l-1.53-.61-4.09-2.27-.24.44,4.11,2.28,1.52.61-.09.19a3.28,3.28,0,0,0,0,2.35,2.73,2.73,0,0,0,1.6,1.56,2.67,2.67,0,0,0,.92.17,2.76,2.76,0,0,0,1.3-.33,3.22,3.22,0,0,0,1.55-1.77v0l1.16.47a3.48,3.48,0,0,0,0,2.07,2.28,2.28,0,0,0,1.35,1.48,2.16,2.16,0,0,0,.71.12,2.49,2.49,0,0,0,1.28-.38,3.58,3.58,0,0,0,1.43-1.81A3.53,3.53,0,0,0,138.32,282.23Zm-7.65,1.93a2.49,2.49,0,0,1-2,.15,2.53,2.53,0,0,1-1.45-1.42,3,3,0,0,1,0-2.17,2.86,2.86,0,0,1,2.62-1.94,2.45,2.45,0,0,1,.83.14,2.52,2.52,0,0,1,1.45,1.43,3,3,0,0,1,0,2.17A3,3,0,0,1,130.67,284.16Zm7.34.29a3.2,3.2,0,0,1-1.33,1.69,1.92,1.92,0,0,1-3-1.09,3.22,3.22,0,0,1,.07-2.14,2.86,2.86,0,0,1,2.48-2,1.66,1.66,0,0,1,.62.11,2,2,0,0,1,1.2,1.32A3.29,3.29,0,0,1,138,284.45Z" style="fill: rgb(176, 190, 197); transform-origin: 129.933px 281.93px;" id="el6ydjf4rgaka" class="animable"></path><g id="el2tz17eydzfg"><path d="M138.32,282.23a2.23,2.23,0,0,0-1.35-1.48,2.8,2.8,0,0,0-3.31,1.84l-1.2-.49a3.16,3.16,0,0,0-.16-1.85,2.73,2.73,0,0,0-1.6-1.56,2.93,2.93,0,0,0-3.45,1.3l-1.53-.61-4.09-2.27-.24.44,4.11,2.28,1.52.61-.09.19a3.28,3.28,0,0,0,0,2.35,2.73,2.73,0,0,0,1.6,1.56,2.67,2.67,0,0,0,.92.17,2.76,2.76,0,0,0,1.3-.33,3.22,3.22,0,0,0,1.55-1.77v0l1.16.47a3.48,3.48,0,0,0,0,2.07,2.28,2.28,0,0,0,1.35,1.48,2.16,2.16,0,0,0,.71.12,2.49,2.49,0,0,0,1.28-.38,3.58,3.58,0,0,0,1.43-1.81A3.53,3.53,0,0,0,138.32,282.23Zm-7.65,1.93a2.49,2.49,0,0,1-2,.15,2.53,2.53,0,0,1-1.45-1.42,3,3,0,0,1,0-2.17,2.86,2.86,0,0,1,2.62-1.94,2.45,2.45,0,0,1,.83.14,2.52,2.52,0,0,1,1.45,1.43,3,3,0,0,1,0,2.17A3,3,0,0,1,130.67,284.16Zm7.34.29a3.2,3.2,0,0,1-1.33,1.69,1.92,1.92,0,0,1-3-1.09,3.22,3.22,0,0,1,.07-2.14,2.86,2.86,0,0,1,2.48-2,1.66,1.66,0,0,1,.62.11,2,2,0,0,1,1.2,1.32A3.29,3.29,0,0,1,138,284.45Z" style="fill: rgb(255, 255, 255); opacity: 0.5; transform-origin: 129.933px 281.93px;" class="animable"></path></g><path d="M118.3,278.85a4.77,4.77,0,0,0,1.49,3.32c1.22,1.14,2.61.23,2.9-1.33.26-1.39,0-3.67-1.58-4.22A2.15,2.15,0,0,0,118.4,278,2.17,2.17,0,0,0,118.3,278.85Z" style="fill: rgb(206, 122, 99); transform-origin: 120.535px 279.598px;" id="ell20wd4ua3rg" class="animable"></path></g><defs>     <filter id="active" height="200%">         <feMorphology in="SourceAlpha" result="DILATED" operator="dilate" radius="2"></feMorphology>                <feFlood flood-color="#32DFEC" flood-opacity="1" result="PINK"></feFlood>        <feComposite in="PINK" in2="DILATED" operator="in" result="OUTLINE"></feComposite>        <feMerge>            <feMergeNode in="OUTLINE"></feMergeNode>            <feMergeNode in="SourceGraphic"></feMergeNode>        </feMerge>    </filter>    <filter id="hover" height="200%">        <feMorphology in="SourceAlpha" result="DILATED" operator="dilate" radius="2"></feMorphology>                <feFlood flood-color="#ff0000" flood-opacity="0.5" result="PINK"></feFlood>        <feComposite in="PINK" in2="DILATED" operator="in" result="OUTLINE"></feComposite>        <feMerge>            <feMergeNode in="OUTLINE"></feMergeNode>            <feMergeNode in="SourceGraphic"></feMergeNode>        </feMerge>            <feColorMatrix type="matrix" values="0   0   0   0   0                0   1   0   0   0                0   0   0   0   0                0   0   0   1   0 "></feColorMatrix>    </filter></defs></svg>